<svg xmlns="http://www.w3.org/2000/svg" version="1.1" fill="currentColor" viewBox="0 0 1024 214">
    <style>
        :root, svg, * {
            fill-rule: evenodd;
            fill: currentColor;
        }
    </style>

    <g><path d="M 256.5,-0.5 C 257.833,-0.5 259.167,-0.5 260.5,-0.5C 214.282,32.1165 164.282,58.2832 110.5,78C 100.29,81.1358 89.9569,83.8025 79.5,86C 65.4943,87.9492 51.4943,87.9492 37.5,86C 16.3494,80.3524 3.68269,66.8524 -0.5,45.5C -0.5,37.8333 -0.5,30.1667 -0.5,22.5C 4.37832,26.8649 9.71165,30.6982 15.5,34C 32.7023,42.2688 50.8689,46.1021 70,45.5C 104.502,44.1664 138.335,38.6664 171.5,29C 200.622,21.0166 228.955,11.1833 256.5,-0.5 Z"/>=    </g>
    <g><path d="M 367.5,0.5 C 385.785,-0.56534 402.451,3.93466 417.5,14C 420.513,15.6792 422.846,18.0125 424.5,21C 418.029,28.6381 411.029,35.8048 403.5,42.5C 390.633,31.9445 375.966,28.4445 359.5,32C 345.859,37.596 342.026,47.096 348,60.5C 352.189,64.1785 357.023,66.6785 362.5,68C 371.807,69.52 381.14,70.8533 390.5,72C 416.315,77.4898 429.315,93.4898 429.5,120C 427.277,146.894 412.943,163.227 386.5,169C 370.112,171.193 353.779,170.86 337.5,168C 325.205,164.773 314.705,158.607 306,149.5C 305.333,148.5 305.333,147.5 306,146.5C 312.709,139.456 319.709,132.789 327,126.5C 345.882,141.231 366.382,144.064 388.5,135C 395.644,127.914 397.144,119.747 393,110.5C 390.736,107.567 387.902,105.4 384.5,104C 371.521,101.601 358.521,99.268 345.5,97C 326.317,92.1516 315.15,79.985 312,60.5C 309.108,32.7693 320.608,13.9359 346.5,4C 353.581,2.44275 360.581,1.27608 367.5,0.5 Z"/>=    </g>
    <g><path d="M 267.5,9.5 C 269.225,9.84254 269.725,10.8425 269,12.5C 231.602,57.5697 189.435,97.4031 142.5,132C 124.561,144.303 105.228,153.969 84.5,161C 38.362,172.21 11.1954,154.376 3,107.5C 2.02031,100.016 1.18698,92.5161 0.5,85C 0.403721,82.6253 0.903721,80.4587 2,78.5C 10.4286,90.3122 21.9286,97.4789 36.5,100C 55.3528,103.25 74.0194,102.25 92.5,97C 116.177,90.108 139.177,81.4413 161.5,71C 198.338,52.7594 233.671,32.2594 267.5,9.5 Z"/>=    </g>
    <g><path d="M 614.5,45.5 C 643.608,42.1297 660.441,54.7964 665,83.5C 665.5,112.165 665.667,140.831 665.5,169.5C 654.833,169.5 644.167,169.5 633.5,169.5C 633.667,143.165 633.5,116.831 633,90.5C 627.7,74.838 617.533,70.6713 602.5,78C 599.469,80.559 597.302,83.7257 596,87.5C 594.544,114.791 594.044,142.124 594.5,169.5C 583.833,169.5 573.167,169.5 562.5,169.5C 562.5,128.5 562.5,87.5 562.5,46.5C 573.167,46.5 583.833,46.5 594.5,46.5C 594.335,49.5184 594.502,52.5184 595,55.5C 600.962,50.9366 607.462,47.6033 614.5,45.5 Z"/>=    </g>
    <g><path d="M 728.5,45.5 C 749.878,42.2347 767.711,48.568 782,64.5C 786.026,70.2403 788.693,76.5736 790,83.5C 793.601,103.413 792.601,123.08 787,142.5C 780.624,155.618 770.458,164.451 756.5,169C 710.018,175.688 687.018,155.521 687.5,108.5C 687.432,96.9371 688.932,85.6037 692,74.5C 699.63,59.0278 711.797,49.3611 728.5,45.5 Z M 734.5,74.5 C 749.427,72.9295 757.594,79.5962 759,94.5C 759.85,105.544 759.517,116.544 758,127.5C 754.043,139.399 745.876,143.899 733.5,141C 724.629,136.791 720.129,129.624 720,119.5C 719.176,109.788 719.509,100.121 721,90.5C 722.514,82.4971 727.014,77.1637 734.5,74.5 Z"/>=    </g>
    <g><path d="M 1023.5,86.5 C 1023.5,100.833 1023.5,115.167 1023.5,129.5C 1019.12,151.714 1005.79,165.214 983.5,170C 939.376,173.377 918.376,152.877 920.5,108.5C 919.34,94.1228 921.84,80.4562 928,67.5C 941.693,49.3733 959.86,42.2066 982.5,46C 1005.35,50.3555 1019.02,63.8555 1023.5,86.5 Z M 966.5,74.5 C 979.588,72.4529 987.755,77.7862 991,90.5C 992.956,102.498 992.956,114.498 991,126.5C 985.811,141.129 975.977,145.296 961.5,139C 956.715,134.931 953.881,129.764 953,123.5C 952.088,111.775 952.421,100.108 954,88.5C 955.926,81.7448 960.093,77.0781 966.5,74.5 Z"/>=    </g>
    <g><path d="M 469.5,213.5 C 461.833,213.5 454.167,213.5 446.5,213.5C 446.5,203.833 446.5,194.167 446.5,184.5C 452.762,185.128 458.762,184.295 464.5,182C 468.086,174.908 471.086,167.575 473.5,160C 458.933,122.463 445.266,84.6297 432.5,46.5C 443.748,46.1793 454.915,46.5126 466,47.5C 473.806,71.2518 481.806,94.9185 490,118.5C 497.67,94.8224 505.337,71.1557 513,47.5C 524.085,46.5126 535.252,46.1793 546.5,46.5C 529.828,94.3488 512.662,142.015 495,189.5C 490.757,202.249 482.257,210.249 469.5,213.5 Z"/>=    </g>
    <g><path d="M 798.5,46.5 C 809.853,46.1678 821.186,46.5012 832.5,47.5C 840.231,71.1925 848.064,94.8592 856,118.5C 863.932,94.8701 871.766,71.2034 879.5,47.5C 890.833,46.1667 902.167,46.1667 913.5,47.5C 898.233,88.0177 883.566,128.684 869.5,169.5C 860.582,169.817 851.749,169.484 843,168.5C 828.071,127.881 813.238,87.2146 798.5,46.5 Z"/>=    </g>
</svg>
