<svg version="1.1" id="Layer_1" xmlns="http://www.w3.org/2000/svg" xmlns:xlink="http://www.w3.org/1999/xlink" x="0px" y="0px" width="100%" viewBox="0 0 3793 960" enable-background="new 0 0 3793 960" xml:space="preserve" style="">

<path fill="#CD6FF9" opacity="1.000000" stroke="none" d=" M1.000001,210.000000   C1.000000,209.555664 1.000000,209.111328 1.354549,208.355835   C3.109850,207.161331 4.562075,206.349518 5.903703,205.384033   C30.479168,187.698639 55.020859,169.966278 79.610428,152.300552   C142.703751,106.972755 205.830780,61.691833 268.902740,16.334385   C275.741150,11.416635 282.307495,6.120586 289.000000,1.000004   C289.000000,1.000000 289.500000,1.000000 289.917358,1.289002   C358.441284,50.523838 426.559357,99.453690 494.646637,148.426361   C512.468323,161.244843 530.194275,174.196396 547.894287,187.451141   C547.159424,188.205200 546.540344,188.777206 545.822815,188.957581   C533.830383,191.972427 521.792786,194.812729 509.831757,197.945862   C493.844421,202.133682 477.940216,206.638672 461.953461,210.828812   C440.080261,216.561798 418.172607,222.164383 396.261719,227.752121   C378.537231,232.272232 360.751068,236.554321 343.057251,241.189987   C327.595367,245.240921 312.182220,249.496475 296.858856,254.037369   C294.621826,254.700317 292.335724,257.130981 291.279388,259.324890   C290.123322,261.725891 290.062927,264.800110 290.051117,267.583160   C289.962860,288.390228 290.004883,309.197876 290.005127,330.473450   C290.006531,354.296570 290.008881,377.651581 290.007019,401.474792   C290.006989,428.297333 290.011139,454.651581 290.005920,481.474060   C290.007080,508.965118 290.017578,535.987976 290.011108,563.478516   C290.007416,598.634216 290.020660,633.322205 290.006958,668.477295   C289.943695,697.261047 289.907410,725.577637 289.578918,754.061890   C273.879456,765.302673 258.470520,776.373535 243.065262,787.449524   C174.143448,837.002747 105.234261,886.573486 36.289955,936.095337   C24.953440,944.238220 13.464315,952.168579 2.028704,959.713013   C2.007661,956.896790 2.000124,954.564758 2.000119,952.232666   C1.999662,706.862610 2.002212,461.492584 1.958523,216.122543   C1.958160,214.081650 1.333290,212.040848 1.000001,210.000000  z"/>
<path fill="#62D1FF" opacity="1.000000" stroke="none" d=" M866.750000,1.000000   C866.963379,4.495363 866.894775,7.990726 866.894714,11.486089   C866.889709,256.793121 866.873901,502.100128 867.010498,747.407104   C867.013184,752.167480 865.458862,754.868469 861.717285,757.550659   C769.024414,824.000244 676.413818,890.564514 583.787842,957.107361   C582.438293,958.076843 581.079529,959.033386 579.370667,959.605591   C579.010071,956.715332 578.998535,954.215454 578.998535,951.715637   C578.999817,706.562866 579.003967,461.410156 578.971741,216.257401   C578.971436,214.158386 578.481873,212.059433 578.171143,209.692169   C578.128357,209.061920 578.135132,208.699921 578.468445,208.211639   C590.837769,199.483902 602.901917,190.912216 614.919861,182.276138   C689.340637,128.797409 763.764404,75.322922 838.147766,21.792229   C847.550110,15.025774 856.721619,7.938603 866.000000,1.000010   C866.000000,1.000000 866.500000,1.000000 866.750000,1.000000  z"/>
<path fill="#464646" opacity="1.000000" stroke="none" d=" M3794.000000,770.666687   C3755.504150,771.054565 3717.008057,771.112000 3678.512207,771.161926   C3668.683105,771.174683 3668.685303,771.163208 3665.864258,761.573792   C3644.239258,688.067932 3622.614014,614.562073 3600.984375,541.057495   C3598.943359,534.120972 3596.869385,527.194092 3594.682861,519.832031   C3578.636475,531.293579 3562.935059,542.507996 3547.234375,553.723267   C3495.213623,590.883728 3443.174805,628.019592 3391.238037,665.297852   C3389.185059,666.771484 3387.334473,669.400452 3386.692139,671.834778   C3378.346436,703.468567 3370.218750,735.160034 3362.104004,766.854309   C3361.446777,769.421082 3361.054932,771.268433 3357.503174,771.255188   C3318.171875,771.108398 3278.839600,771.163391 3239.507812,771.148926   C3238.715332,771.148682 3237.922852,770.970520 3236.606689,770.812500   C3310.211670,542.832214 3383.725342,315.134827 3457.353271,87.083344   C3458.722168,87.004379 3460.177002,86.847733 3461.632080,86.847168   C3497.297363,86.833427 3532.963135,86.906296 3568.627686,86.733826   C3572.424316,86.715469 3573.662842,88.108322 3574.730713,91.442642   C3591.102295,142.559006 3607.600830,193.634750 3624.095947,244.711502   C3663.714355,367.388245 3703.349609,490.059601 3742.970703,612.735535   C3751.347168,638.671326 3759.683105,664.620361 3768.053467,690.558228   C3776.462646,716.616821 3784.891113,742.669189 3793.655762,768.862122   C3794.000000,769.444458 3794.000000,769.888916 3794.000000,770.666687  M3506.199707,283.716919   C3483.388672,358.939484 3460.577393,434.162048 3437.650879,509.765442   C3438.569824,509.537201 3438.762939,509.540802 3438.888916,509.450623   C3480.585938,479.622742 3522.292725,449.808289 3563.889404,419.841187   C3564.940918,419.083740 3565.511230,416.420807 3565.081543,415.023193   C3549.500732,364.374786 3533.786865,313.767151 3517.990967,263.185211   C3517.604004,261.946503 3516.079102,261.063263 3515.084961,260.014374   C3514.231445,261.029785 3512.974365,261.913116 3512.591797,263.082581   C3510.437012,269.671082 3508.491943,276.328247 3506.199707,283.716919  z"/>



<path fill="#7AD3FF" opacity="1.000000" stroke="none" d=" M578.220764,209.960449   C578.481873,212.059433 578.971436,214.158386 578.971741,216.257401   C579.003967,461.410156 578.999817,706.562866 578.998535,951.715637   C578.998535,954.215454 579.010071,956.715332 579.035034,959.699768   C579.053894,960.184387 579.056702,960.594116 579.028320,960.797058   C579.000000,961.000000 578.500000,961.000000 578.220825,960.750854   C577.927917,960.334961 577.914246,960.168274 577.938721,959.533936   C577.982910,869.042542 577.989014,779.018860 577.995972,688.526733   C577.993408,656.367371 577.989990,624.676392 577.986816,592.517578   C577.980408,557.693176 577.973816,523.336487 577.974854,488.513184   C577.968872,460.357544 577.955322,432.668488 577.959839,404.513062   C577.959045,378.690796 577.940247,353.334930 577.949402,327.513184   C577.954041,303.358398 577.930786,279.669556 577.939941,255.514282   C578.055115,240.018738 578.137939,224.989594 578.220764,209.960449  z"/>
<path fill="#DA93F9" opacity="1.000000" stroke="none" d=" M2.028718,959.713013   C2.045754,960.197205 2.063617,960.600952 2.031804,960.800476   C1.666658,960.833618 1.056169,960.684631 1.044444,960.498047   C0.961037,959.170715 1.000000,957.835693 1.000000,956.503113   C1.000000,707.978027 1.000000,459.452881 1.000001,210.463882   C1.333290,212.040848 1.958160,214.081650 1.958523,216.122543   C2.002212,461.492584 1.999662,706.862610 2.000119,952.232666   C2.000124,954.564758 2.007661,956.896790 2.028718,959.713013  z"/>
<path fill="#62D1FF" opacity="1.000000" stroke="none" d=" M577.900574,960.001648   C577.914246,960.168274 577.927917,960.334961 577.970825,960.750854   C578.000000,961.000000 577.500000,961.000000 577.250000,961.000000   C577.047180,960.831848 577.094421,960.663757 577.327881,960.243774   C577.514221,959.991943 577.900574,960.001648 577.900574,960.001648  z"/>
<path fill="#464646" opacity="1.000000" stroke="none" d=" M3141.000000,394.000000   C3141.000000,519.147522 3141.000000,643.795105 3141.000000,768.853088   C3139.388672,768.965210 3137.968506,769.149597 3136.548340,769.150330   C3103.548828,769.166809 3070.549316,769.113831 3037.550293,769.241333   C3034.303467,769.253845 3032.561768,768.268188 3030.868164,765.466553   C2941.785645,618.095703 2852.616211,470.777069 2763.432373,323.467468   C2762.062744,321.205170 2761.317871,317.779694 2756.870117,319.448120   C2756.870117,469.002533 2756.870117,618.765198 2756.870117,768.845093   C2717.872803,768.845093 2679.307617,768.845093 2640.451904,768.845093   C2640.451904,540.849487 2640.451904,312.948181 2640.451904,84.462532   C2642.210693,84.462532 2643.832520,84.462524 2645.454590,84.462532   C2677.287354,84.462616 2709.120850,84.539299 2740.952637,84.364075   C2744.849121,84.342621 2746.838867,85.715317 2748.792236,88.924904   C2838.586670,236.449722 2928.465820,383.922882 3018.400635,531.361938   C3019.464355,533.105774 3021.382812,534.328003 3022.902100,535.793762   C3023.419434,535.458923 3023.937012,535.124084 3024.454590,534.789246   C3024.454590,384.888214 3024.454590,234.987137 3024.454590,84.774948   C3063.451416,84.774948 3101.873779,84.774948 3141.000000,84.774948   C3141.000000,187.686111 3141.000000,290.593048 3141.000000,394.000000  z"/>
<path fill="#464646" opacity="1.000000" stroke="none" d=" M2061.462402,480.999878   C2061.462646,348.721069 2061.462646,216.942322 2061.462646,84.462029   C2063.691650,84.462029 2065.459717,84.461533 2067.228027,84.462105   C2135.051270,84.483978 2202.875732,84.269318 2270.696533,84.684479   C2289.004395,84.796547 2307.383057,86.080681 2325.583740,88.124153   C2358.869629,91.861275 2391.063232,99.906433 2420.728516,116.175056   C2466.988770,141.544342 2494.229248,181.117172 2505.730713,231.845932   C2509.062988,246.543030 2510.477051,261.742523 2511.847412,276.795776   C2512.973877,289.170654 2513.679199,301.732513 2512.862305,314.098633   C2511.814453,329.958557 2509.581787,345.794556 2506.927002,361.483032   C2500.732910,398.086395 2484.529297,429.832458 2458.633301,456.450317   C2442.424072,473.111542 2423.253662,485.611481 2402.047363,495.035553   C2399.922363,495.979950 2397.782959,496.892731 2395.660645,497.843506   C2395.368408,497.974396 2395.136475,498.240143 2394.464355,498.766083   C2443.394287,588.535339 2492.363037,678.375671 2541.677246,768.850342   C2539.429199,768.981079 2537.865967,769.150818 2536.302734,769.151367   C2493.975586,769.165710 2451.648438,769.112549 2409.321777,769.250244   C2405.607666,769.262329 2403.899170,767.997375 2402.243408,764.738220   C2360.978516,683.525757 2319.588379,602.376770 2278.138428,521.258728   C2277.447754,519.907654 2275.744873,518.146667 2274.505371,518.139465   C2244.536133,517.964844 2214.565674,518.003296 2184.172363,518.003296   C2184.172363,601.676147 2184.172363,685.075256 2184.172363,768.818298   C2143.193848,768.818298 2102.637207,768.818298 2061.462402,768.818298   C2061.462402,673.039795 2061.462402,577.269836 2061.462402,480.999878  M2296.526367,408.989136   C2304.357666,407.643768 2312.304199,406.766937 2319.999512,404.870178   C2349.770264,397.532379 2371.291992,380.606812 2381.823975,350.991058   C2387.343994,335.468567 2387.924805,319.275330 2388.894043,303.143921   C2389.228760,297.569458 2388.772461,291.852509 2387.909668,286.320465   C2386.060547,274.465851 2385.002930,262.268463 2381.320068,250.960953   C2370.964111,219.164703 2346.400635,203.729889 2315.205811,197.139923   C2293.411865,192.535980 2271.202637,192.512833 2249.067871,192.218369   C2229.240479,191.954590 2209.406738,192.162842 2189.575928,192.162842   C2187.810059,192.162842 2186.043945,192.162842 2184.228760,192.162842   C2184.228760,265.071228 2184.228760,337.326782 2184.228760,409.877594   C2185.234863,409.924591 2186.028809,409.993988 2186.822998,409.994110   C2218.319092,409.999664 2249.815186,410.040253 2281.311279,409.954865   C2286.079834,409.941956 2290.846680,409.339539 2296.526367,408.989136  z"/>
<path fill="#464646" opacity="1.000000" stroke="none" d=" M1343.386353,110.379028   C1345.884033,102.740891 1348.330688,95.498894 1350.519531,88.179794   C1351.297852,85.577171 1352.374146,84.444305 1355.322388,84.453163   C1391.486084,84.561928 1427.650391,84.565590 1463.814087,84.453827   C1466.816895,84.444542 1467.787598,85.728966 1468.594360,88.244019   C1484.111450,136.613800 1499.670410,184.970261 1515.271118,233.313110   C1538.902588,306.540802 1562.565430,379.758362 1586.228394,452.975891   C1619.752075,556.704590 1653.288696,660.429138 1686.809692,764.158752   C1687.263428,765.562866 1687.583862,767.010193 1688.081177,768.864319   C1686.418579,768.975464 1685.011230,769.151184 1683.604004,769.151672   C1644.939819,769.166504 1606.275391,769.114807 1567.611572,769.244080   C1564.021606,769.256104 1562.494263,768.303833 1561.459839,764.698364   C1553.461060,736.817261 1545.241333,708.999084 1536.998779,681.188538   C1529.742310,656.705078 1522.264160,632.287109 1515.072510,607.784912   C1506.465454,578.460449 1498.060181,549.076904 1489.552612,519.723267   C1489.417725,519.257324 1489.092773,518.846375 1488.634155,517.998657   C1485.633057,520.108215 1482.689087,522.148499 1479.774780,524.230469   C1415.147339,570.398804 1350.535156,616.588501 1285.859009,662.688477   C1282.962036,664.753296 1281.367432,667.067139 1280.489380,670.543152   C1272.763428,701.128174 1264.845703,731.664856 1256.955933,762.208374   C1256.379761,764.439148 1255.578125,766.611633 1254.832642,768.964722   C1213.611938,768.964722 1172.490112,768.964722 1130.773560,768.964722   C1201.657349,549.360229 1272.445435,330.052490 1343.386353,110.379028  M1333.749268,506.956665   C1338.902466,503.294403 1344.067871,499.649048 1349.207031,495.967133   C1385.194092,470.183990 1421.172974,444.389496 1457.166626,418.615448   C1459.086182,417.240875 1460.400879,416.493256 1459.279907,413.210632   C1455.329346,401.641663 1452.298828,389.762695 1448.657959,378.082733   C1443.240479,360.703308 1437.473633,343.432587 1432.087891,326.043579   C1425.482666,304.716797 1419.157349,283.303345 1412.564575,261.972687   C1412.082886,260.414459 1410.415039,259.222870 1409.298828,257.860779   C1408.357788,259.219513 1406.999878,260.450348 1406.538086,261.956055   C1398.866333,286.971741 1391.325317,312.027405 1383.718750,337.063080   C1372.296997,374.655151 1360.828003,412.232880 1349.416504,449.828064   C1343.687012,468.703613 1338.040161,487.604248 1332.134399,506.947906   C1332.201172,507.190430 1332.268066,507.432953 1332.334839,507.675446   C1332.579712,507.475403 1332.824463,507.275330 1333.749268,506.956665  z"/>
<path fill="#464646" opacity="1.000000" stroke="none" d=" M1784.000000,541.000000   C1784.000000,463.175049 1784.028198,385.850098 1783.913696,308.525299   C1783.908203,304.802521 1784.967651,302.599030 1788.041504,300.404388   C1826.385742,273.027313 1864.611450,245.484238 1902.876587,217.996185   C1904.165405,217.070374 1905.547607,216.274597 1907.310059,215.147171   C1907.310059,400.642853 1907.310059,585.547241 1907.310059,770.807495   C1866.288086,770.807495 1825.412964,770.807495 1784.000000,770.807495   C1784.000000,694.374146 1784.000000,617.937073 1784.000000,541.000000  z"/>
<path fill="#464646" opacity="1.000000" stroke="none" d=" M1804.915771,225.903687   C1798.026733,230.828110 1791.443848,235.568832 1784.236816,240.759079   C1784.236816,188.647858 1784.236816,137.302261 1784.236816,85.559067   C1824.929810,85.559067 1865.779785,85.559067 1907.163330,85.559067   C1907.163330,87.256401 1907.163330,88.872635 1907.163330,90.488861   C1907.163330,109.651237 1907.076538,128.814377 1907.244629,147.975266   C1907.274292,151.370071 1906.141846,153.298141 1903.406494,155.250763   C1870.618408,178.656677 1837.933716,202.207199 1804.915771,225.903687  z"/>
<path fill="#86B1FD" opacity="1.000000" stroke="none" d=" M577.967224,488.979767   C577.973816,523.336487 577.980408,557.693176 577.581299,592.523865   C575.886536,593.260498 574.566467,593.421448 573.313477,593.802734   C566.988098,595.727478 560.753967,598.008972 554.345581,599.588501   C547.786682,601.205200 541.016846,601.950745 534.425049,603.453674   C528.232788,604.865417 522.134521,606.706299 516.029724,608.478638   C512.487671,609.506958 509.064301,610.964539 505.499481,611.889832   C498.562805,613.690430 491.516754,615.078735 484.605499,616.965698   C478.567871,618.614136 472.681000,620.808228 466.669189,622.561279   C464.526733,623.186035 462.138214,622.963074 459.991730,623.579102   C454.152100,625.255127 448.479645,627.651428 442.556976,628.862671   C436.400421,630.121582 430.237549,630.802185 424.136078,632.843750   C418.348267,634.780457 412.616180,637.308167 406.050598,637.422119   C400.953522,637.510620 395.882782,640.037842 390.830902,641.581360   C384.339508,643.564453 377.988342,646.727844 371.375366,647.398987   C364.059784,648.141541 357.428925,649.662292 351.346619,653.700134   C350.967957,653.951538 350.335846,654.068542 349.901428,653.951660   C343.531128,652.237549 337.873169,656.424316 331.606140,656.143494   C329.401123,656.044617 327.130432,657.783875 324.861084,658.604675   C323.532227,659.085388 322.147064,659.410583 320.786896,659.804565   C318.867798,660.360596 316.904907,660.800293 315.041595,661.503967   C313.222748,662.190796 311.502625,663.865479 309.744293,663.858215   C302.830048,663.829773 296.378387,665.564331 290.033936,668.010193   C290.020660,633.322205 290.007416,598.634216 290.433777,563.474731   C295.530823,561.681335 300.114655,559.924072 304.859985,559.122681   C317.039032,557.065857 329.126556,555.178955 340.885590,550.829773   C351.064911,547.064941 362.006958,545.387207 372.568481,542.621338   C379.079559,540.916260 385.466736,538.735596 391.983704,537.056091   C410.314941,532.331726 428.688202,527.770752 447.037628,523.116638   C457.365997,520.496948 467.703461,517.906860 477.986298,515.117249   C481.091095,514.274902 483.982971,512.674988 487.053650,511.670593   C489.380798,510.909393 491.817474,510.418549 494.241516,510.036499   C496.518463,509.677673 498.917633,509.923279 501.133728,509.377686   C512.776184,506.511261 524.418762,503.627045 535.974548,500.435181   C541.142822,499.007660 545.985596,495.937683 551.195129,495.233856   C558.760071,494.211731 566.166565,493.214630 573.136536,489.900696   C574.568909,489.219666 576.347961,489.267761 577.967224,488.979767  z"/>
<path fill="#73C3FE" opacity="1.000000" stroke="none" d=" M290.006958,668.477295   C296.378387,665.564331 302.830048,663.829773 309.744293,663.858215   C311.502625,663.865479 313.222748,662.190796 315.041595,661.503967   C316.904907,660.800293 318.867798,660.360596 320.786896,659.804565   C322.147064,659.410583 323.532227,659.085388 324.861084,658.604675   C327.130432,657.783875 329.401123,656.044617 331.606140,656.143494   C337.873169,656.424316 343.531128,652.237549 349.901428,653.951660   C350.335846,654.068542 350.967957,653.951538 351.346619,653.700134   C357.428925,649.662292 364.059784,648.141541 371.375366,647.398987   C377.988342,646.727844 384.339508,643.564453 390.830902,641.581360   C395.882782,640.037842 400.953522,637.510620 406.050598,637.422119   C412.616180,637.308167 418.348267,634.780457 424.136078,632.843750   C430.237549,630.802185 436.400421,630.121582 442.556976,628.862671   C448.479645,627.651428 454.152100,625.255127 459.991730,623.579102   C462.138214,622.963074 464.526733,623.186035 466.669189,622.561279   C472.681000,620.808228 478.567871,618.614136 484.605499,616.965698   C491.516754,615.078735 498.562805,613.690430 505.499481,611.889832   C509.064301,610.964539 512.487671,609.506958 516.029724,608.478638   C522.134521,606.706299 528.232788,604.865417 534.425049,603.453674   C541.016846,601.950745 547.786682,601.205200 554.345581,599.588501   C560.753967,598.008972 566.988098,595.727478 573.313477,593.802734   C574.566467,593.421448 575.886536,593.260498 577.581177,592.991577   C577.989990,624.676392 577.993408,656.367371 577.636963,688.567017   C571.980713,690.722839 566.722656,692.510864 561.374817,693.969482   C557.570801,695.007019 553.584778,695.382446 549.788574,696.442261   C543.675232,698.149048 537.706360,700.385071 531.572083,702.001221   C526.898987,703.232422 521.757141,703.102722 517.370117,704.906860   C510.048553,707.917725 503.021271,711.351135 494.774261,710.188965   C494.079102,710.091003 493.141541,710.555115 492.553497,711.043396   C488.759460,714.194092 484.603729,715.557678 479.693054,714.165771   C479.018982,713.974670 477.796204,714.217407 477.420532,714.710876   C474.117432,719.049377 469.113281,718.106323 464.701080,719.017090   C462.783142,719.413086 460.925964,720.116089 459.002655,720.470520   C455.216522,721.168335 451.394226,721.669983 447.607635,722.365723   C446.604004,722.550110 445.643951,723.084290 444.720276,723.565979   C443.171570,724.373596 441.710785,725.914246 440.138489,726.018127   C431.714386,726.574524 424.423737,730.865051 416.473450,732.801392   C409.622650,734.470032 402.489166,734.976929 395.481873,736.005493   C394.511230,736.148071 393.163879,735.986572 392.640991,736.559326   C388.419708,741.182861 382.711731,741.288696 377.152100,742.062744   C372.104370,742.765442 366.282166,742.446655 362.265076,744.938110   C356.359589,748.600891 350.099182,749.588623 343.742523,751.081909   C338.953705,752.206787 334.274597,753.793335 329.496368,754.970398   C323.914948,756.345398 318.191101,758.763245 312.692078,758.381226   C307.522247,758.022156 305.163666,759.088562 304.022156,763.760254   C299.512695,760.581848 295.003235,757.403442 290.182434,754.059692   C289.907410,725.577637 289.943695,697.261047 290.006958,668.477295  z"/>
<path fill="#97A1FC" opacity="1.000000" stroke="none" d=" M577.974854,488.513184   C576.347961,489.267761 574.568909,489.219666 573.136536,489.900696   C566.166565,493.214630 558.760071,494.211731 551.195129,495.233856   C545.985596,495.937683 541.142822,499.007660 535.974548,500.435181   C524.418762,503.627045 512.776184,506.511261 501.133728,509.377686   C498.917633,509.923279 496.518463,509.677673 494.241516,510.036499   C491.817474,510.418549 489.380798,510.909393 487.053650,511.670593   C483.982971,512.674988 481.091095,514.274902 477.986298,515.117249   C467.703461,517.906860 457.365997,520.496948 447.037628,523.116638   C428.688202,527.770752 410.314941,532.331726 391.983704,537.056091   C385.466736,538.735596 379.079559,540.916260 372.568481,542.621338   C362.006958,545.387207 351.064911,547.064941 340.885590,550.829773   C329.126556,555.178955 317.039032,557.065857 304.859985,559.122681   C300.114655,559.924072 295.530823,561.681335 290.450745,563.006958   C290.017578,535.987976 290.007080,508.965118 290.391235,481.425903   C293.622711,480.054016 296.473694,479.242401 299.293335,478.333649   C304.939301,476.514038 310.525360,474.492828 316.221527,472.851227   C319.205414,471.991302 322.443298,472.023438 325.439758,471.194458   C334.910889,468.574310 344.277893,465.572662 353.767731,463.026306   C366.140198,459.706512 378.618011,456.780090 390.997528,453.485352   C396.695068,451.968964 402.202576,449.725983 407.914886,448.281708   C412.782959,447.050873 417.928162,446.880493 422.759277,445.547211   C430.530823,443.402466 438.044586,440.292480 445.850037,438.309784   C455.833862,435.773773 466.080505,434.272919 476.065674,431.741425   C488.777100,428.518738 501.339020,424.706879 513.967712,421.157227   C518.879578,419.776611 523.763977,418.278625 528.720398,417.080261   C537.961670,414.845825 547.268616,412.882538 556.506042,410.633148   C563.684570,408.885162 570.798889,406.873779 577.941772,404.979492   C577.955322,432.668488 577.968872,460.357544 577.974854,488.513184  z"/>
<path fill="#A594FB" opacity="1.000000" stroke="none" d=" M577.959839,404.513062   C570.798889,406.873779 563.684570,408.885162 556.506042,410.633148   C547.268616,412.882538 537.961670,414.845825 528.720398,417.080261   C523.763977,418.278625 518.879578,419.776611 513.967712,421.157227   C501.339020,424.706879 488.777100,428.518738 476.065674,431.741425   C466.080505,434.272919 455.833862,435.773773 445.850037,438.309784   C438.044586,440.292480 430.530823,443.402466 422.759277,445.547211   C417.928162,446.880493 412.782959,447.050873 407.914886,448.281708   C402.202576,449.725983 396.695068,451.968964 390.997528,453.485352   C378.618011,456.780090 366.140198,459.706512 353.767731,463.026306   C344.277893,465.572662 334.910889,468.574310 325.439758,471.194458   C322.443298,472.023438 319.205414,471.991302 316.221527,472.851227   C310.525360,474.492828 304.939301,476.514038 299.293335,478.333649   C296.473694,479.242401 293.622711,480.054016 290.400574,480.957703   C290.011139,454.651581 290.006989,428.297333 290.438202,401.472412   C292.675110,400.798798 294.527008,400.797241 296.270264,400.361237   C311.767456,396.485321 327.234650,392.489166 342.737030,388.634430   C346.412933,387.720367 350.265228,387.479736 353.903320,386.456299   C367.262543,382.698181 380.507629,378.524994 393.905792,374.916992   C408.391754,371.016022 423.017822,367.638458 437.550385,363.906311   C446.802063,361.530396 455.970306,358.829376 465.222717,356.456329   C471.134003,354.940186 477.185760,353.962280 483.077545,352.381500   C495.632477,349.012939 508.109955,345.356598 520.646606,341.918243   C530.367432,339.252167 540.092590,336.584686 549.884583,334.200256   C559.183838,331.935760 568.572266,330.038086 577.921509,327.979095   C577.940247,353.334930 577.959045,378.690796 577.959839,404.513062  z"/>
<path fill="#C07BFA" opacity="1.000000" stroke="none" d=" M578.171143,209.692169   C578.137939,224.989594 578.055115,240.018738 577.537231,255.531219   C570.075500,257.674561 563.056763,259.369232 556.018921,260.980804   C552.168640,261.862488 548.244690,262.445374 544.428162,263.446350   C539.044678,264.858276 533.762512,266.656982 528.379028,268.069366   C516.967407,271.063293 505.495850,273.830658 494.097290,276.872375   C490.437500,277.848999 486.892914,280.556641 483.359711,280.444946   C475.393036,280.193085 468.610046,283.195923 461.652466,286.128937   C460.606018,286.570068 459.438141,286.730621 458.319702,286.992218   C451.271118,288.640808 444.211945,290.244720 437.173370,291.934814   C430.320068,293.580475 423.502563,295.376923 416.641266,296.987427   C409.329712,298.703552 401.959961,300.176300 394.667236,301.965637   C391.625946,302.711823 388.764160,304.168701 385.738312,305.003601   C381.429596,306.192444 377.012878,306.988007 372.699310,308.161285   C363.205658,310.743469 353.776123,313.563873 344.267883,316.089264   C332.886475,319.112213 321.448334,321.921448 310.038513,324.837921   C303.357300,326.545715 296.683350,328.281921 290.006104,330.005371   C290.004883,309.197876 289.962860,288.390228 290.051117,267.583160   C290.062927,264.800110 290.123322,261.725891 291.279388,259.324890   C292.335724,257.130981 294.621826,254.700317 296.858856,254.037369   C312.182220,249.496475 327.595367,245.240921 343.057251,241.189987   C360.751068,236.554321 378.537231,232.272232 396.261719,227.752121   C418.172607,222.164383 440.080261,216.561798 461.953461,210.828812   C477.940216,206.638672 493.844421,202.133682 509.831757,197.945862   C521.792786,194.812729 533.830383,191.972427 545.822815,188.957581   C546.540344,188.777206 547.159424,188.205200 547.894287,187.451141   C557.815186,194.041351 567.666138,200.995865 577.829468,208.144165   C578.135132,208.699921 578.128357,209.061920 578.171143,209.692169  z"/>
<path fill="#B387FB" opacity="1.000000" stroke="none" d=" M290.005127,330.473480   C296.683350,328.281921 303.357300,326.545715 310.038513,324.837921   C321.448334,321.921448 332.886475,319.112213 344.267883,316.089264   C353.776123,313.563873 363.205658,310.743469 372.699310,308.161285   C377.012878,306.988007 381.429596,306.192444 385.738312,305.003601   C388.764160,304.168701 391.625946,302.711823 394.667236,301.965637   C401.959961,300.176300 409.329712,298.703552 416.641266,296.987427   C423.502563,295.376923 430.320068,293.580475 437.173370,291.934814   C444.211945,290.244720 451.271118,288.640808 458.319702,286.992218   C459.438141,286.730621 460.606018,286.570068 461.652466,286.128937   C468.610046,283.195923 475.393036,280.193085 483.359711,280.444946   C486.892914,280.556641 490.437500,277.848999 494.097290,276.872375   C505.495850,273.830658 516.967407,271.063293 528.379028,268.069366   C533.762512,266.656982 539.044678,264.858276 544.428162,263.446350   C548.244690,262.445374 552.168640,261.862488 556.018921,260.980804   C563.056763,259.369232 570.075500,257.674561 577.504883,255.997620   C577.930786,279.669556 577.954041,303.358398 577.949402,327.513184   C568.572266,330.038086 559.183838,331.935760 549.884583,334.200256   C540.092590,336.584686 530.367432,339.252167 520.646606,341.918243   C508.109955,345.356598 495.632477,349.012939 483.077545,352.381500   C477.185760,353.962280 471.134003,354.940186 465.222717,356.456329   C455.970306,358.829376 446.802063,361.530396 437.550385,363.906311   C423.017822,367.638458 408.391754,371.016022 393.905792,374.916992   C380.507629,378.524994 367.262543,382.698181 353.903320,386.456299   C350.265228,387.479736 346.412933,387.720367 342.737030,388.634430   C327.234650,392.489166 311.767456,396.485321 296.270264,400.361237   C294.527008,400.797241 292.675110,400.798798 290.442383,401.004181   C290.008881,377.651581 290.006531,354.296570 290.005127,330.473480  z"/>

<path fill="#63D0FF" opacity="1.000000" stroke="none" d=" M304.282806,763.988770   C305.163666,759.088562 307.522247,758.022156 312.692078,758.381226   C318.191101,758.763245 323.914948,756.345398 329.496368,754.970398   C334.274597,753.793335 338.953705,752.206787 343.742523,751.081909   C350.099182,749.588623 356.359589,748.600891 362.265076,744.938110   C366.282166,742.446655 372.104370,742.765442 377.152100,742.062744   C382.711731,741.288696 388.419708,741.182861 392.640991,736.559326   C393.163879,735.986572 394.511230,736.148071 395.481873,736.005493   C402.489166,734.976929 409.622650,734.470032 416.473450,732.801392   C424.423737,730.865051 431.714386,726.574524 440.138489,726.018127   C441.710785,725.914246 443.171570,724.373596 444.720276,723.565979   C445.643951,723.084290 446.604004,722.550110 447.607635,722.365723   C451.394226,721.669983 455.216522,721.168335 459.002655,720.470520   C460.925964,720.116089 462.783142,719.413086 464.701080,719.017090   C469.113281,718.106323 474.117432,719.049377 477.420532,714.710876   C477.796204,714.217407 479.018982,713.974670 479.693054,714.165771   C484.603729,715.557678 488.759460,714.194092 492.553497,711.043396   C493.141541,710.555115 494.079102,710.091003 494.774261,710.188965   C503.021271,711.351135 510.048553,707.917725 517.370117,704.906860   C521.757141,703.102722 526.898987,703.232422 531.572083,702.001221   C537.706360,700.385071 543.675232,698.149048 549.788574,696.442261   C553.584778,695.382446 557.570801,695.007019 561.374817,693.969482   C566.722656,692.510864 571.980713,690.722839 577.636108,689.035400   C577.989014,779.018860 577.982910,869.042542 577.938721,959.533936   C577.900574,960.001648 577.514221,959.991943 577.321716,959.981934   C557.887085,946.256592 538.605347,932.596375 519.410095,918.815796   C460.173523,876.288757 400.964478,833.723450 341.757812,791.154846   C329.324371,782.215454 316.946777,773.198486 304.282806,763.988770  z"/>



</svg>