<svg version="1.1" id="Layer_1" xmlns="http://www.w3.org/2000/svg" xmlns:xlink="http://www.w3.org/1999/xlink" x="0px" y="0px"
	 width="100%" viewBox="0 0 3000 1014" xml:space="preserve">
<path fill="#377DFF" opacity="1.000000" stroke="none" 
	d="
M558.999878,630.180542 
	C560.080994,639.001343 557.363403,645.565918 549.792053,649.691650 
	C548.442078,650.427185 546.773987,650.946289 545.252502,650.947144 
	C444.763367,651.005249 344.273987,651.100098 243.785614,650.822754 
	C235.085999,650.798767 226.213028,648.969177 217.741333,646.752502 
	C206.199203,643.732361 194.580292,640.403137 183.710434,635.589417 
	C173.266327,630.964233 163.839325,624.088562 153.777069,618.543457 
	C140.208084,611.065918 129.217041,600.427307 119.650139,588.726807 
	C110.173019,577.136108 102.275650,564.197510 94.245697,551.495789 
	C86.311897,538.946228 81.487968,524.932312 78.058800,510.589813 
	C75.682472,500.650848 73.282974,490.401733 73.219307,480.276581 
	C72.796036,412.953186 72.862778,345.625305 73.115143,278.300201 
	C73.165985,264.738708 76.402039,251.510071 80.761360,238.645920 
	C83.510544,230.533234 85.865654,222.226883 89.361420,214.440125 
	C96.139221,199.342758 104.741684,185.393143 115.582794,172.663025 
	C128.744583,157.207886 144.073044,144.553329 160.932007,133.527252 
	C175.224258,124.179848 190.723694,117.006996 206.989044,112.455376 
	C222.669434,108.067451 238.911087,105.828835 255.485626,105.873535 
	C351.474548,106.132393 447.464539,105.999588 543.454163,106.000534 
	C552.871338,106.000626 558.932068,112.189911 559.008484,121.759148 
	C559.165955,141.486313 552.141846,158.343948 538.248352,172.168121 
	C524.475586,185.872223 507.741699,192.992477 488.175720,192.995316 
	C412.017303,193.006393 335.858398,193.143814 259.700714,192.907883 
	C238.213196,192.841324 218.807098,198.586655 201.479691,211.078430 
	C183.775742,223.841705 171.447098,240.598816 164.593994,261.486053 
	C161.219559,271.770874 159.755829,282.123138 159.941635,292.890106 
	C160.179977,306.699585 159.999573,320.516266 159.999573,335.000000 
	C162.162460,335.000000 164.088547,335.000000 166.014618,335.000000 
	C269.503418,335.000000 372.992249,334.999603 476.481049,335.000702 
	C486.029785,335.000793 491.793335,340.958099 492.040619,350.460938 
	C492.646606,373.749420 483.176605,392.415649 465.468323,406.792603 
	C453.421387,416.573273 439.300873,421.985260 423.504425,421.989349 
	C337.847015,422.011536 252.189621,421.999908 166.532211,421.999908 
	C164.558273,421.999908 162.584351,421.999878 160.280655,421.999878 
	C160.175583,423.719055 160.013306,425.157990 160.011230,426.597229 
	C159.991684,440.095734 160.042511,453.594482 159.987350,467.092773 
	C159.932663,480.479828 162.797440,493.069580 168.385239,505.339325 
	C173.822769,517.279114 181.508011,527.143127 190.640182,536.432983 
	C202.408051,548.403931 216.658386,555.619080 232.230469,560.493896 
	C238.850037,562.566162 246.012222,563.810669 252.938705,563.858582 
	C333.192078,564.413391 413.448364,564.542847 493.701721,565.101807 
	C510.365082,565.217834 524.733521,572.447327 536.674255,583.616943 
	C549.873718,595.964050 557.303772,611.566223 558.999878,630.180542 
z"/>
<path fill="#377DFF" opacity="1.000000" stroke="none" 
	d="
M1098.293457,252.697464 
	C1117.026001,259.505096 1133.538452,269.434692 1148.392578,281.973938 
	C1154.991333,287.544220 1160.744141,294.134644 1166.740967,300.396118 
	C1180.337769,314.592865 1188.488770,332.110382 1195.248169,350.101837 
	C1199.140869,360.463257 1200.978027,371.696045 1202.829834,382.690002 
	C1204.055420,389.965759 1203.921753,397.512238 1203.960327,404.939789 
	C1204.358154,481.362274 1204.663086,557.785217 1205.002563,634.208069 
	C1205.079346,651.501099 1195.066650,654.232178 1181.859619,652.797852 
	C1168.982910,651.399414 1157.116943,646.797241 1146.493774,639.158325 
	C1145.517700,638.456543 1143.492310,638.578735 1142.211792,639.037598 
	C1132.790039,642.412537 1123.610474,646.608765 1114.001465,649.270996 
	C1106.196533,651.433289 1097.904419,652.815186 1089.822144,652.845459 
	C1018.329224,653.112610 946.833801,653.192444 875.341736,652.823181 
	C862.538696,652.757080 849.903137,649.975525 837.674011,645.425110 
	C824.546387,640.540405 812.678467,633.515381 802.394226,624.384216 
	C785.786194,609.638123 772.396057,592.451782 765.717102,570.621094 
	C762.089478,558.764221 760.154846,546.859497 759.922546,534.498535 
	C759.633667,519.125916 759.529724,503.660217 764.259888,488.991699 
	C767.653931,478.466644 772.276611,468.001160 778.260559,458.743286 
	C784.158691,449.618225 792.036194,441.620667 799.802734,433.889282 
	C812.734985,421.015564 828.399414,412.019409 845.917480,407.374451 
	C856.709045,404.513031 868.215149,403.233032 879.409180,403.182587 
	C956.401184,402.835419 1033.395386,403.000153 1110.388916,403.000153 
	C1112.371094,403.000153 1114.353394,403.000153 1117.611694,403.000153 
	C1116.552856,396.060913 1116.241089,389.351807 1114.442139,383.068542 
	C1108.026245,360.660095 1093.288696,345.033508 1072.474976,335.441986 
	C1064.304077,331.676544 1055.304077,329.870483 1045.917358,329.893524 
	C969.090942,330.082001 892.263855,330.000549 815.437012,329.998810 
	C805.448547,329.998596 798.895935,323.463440 799.023499,313.350708 
	C799.257019,294.835785 806.324280,279.222870 818.757080,265.593597 
	C827.786255,255.695587 838.842651,249.533600 851.443970,246.027176 
	C857.354309,244.382553 863.605103,243.151077 869.706604,243.129410 
	C929.200806,242.917923 988.698242,242.724365 1048.189697,243.178238 
	C1065.145386,243.307617 1081.908325,246.491119 1098.293457,252.697464 
M976.500000,489.000671 
	C943.509277,489.000549 910.512329,489.362000 877.531433,488.792969 
	C866.816833,488.608093 850.617737,501.108063 849.085266,511.580414 
	C847.925720,519.504395 846.553162,527.661560 847.274658,535.531677 
	C848.253052,546.203613 853.766113,554.735840 863.578064,560.352478 
	C870.478088,564.302124 877.545410,564.153992 885.088013,564.128845 
	C951.735168,563.906921 1018.383545,564.082825 1085.031128,563.931091 
	C1098.585449,563.900208 1110.686401,553.342407 1114.813721,542.674927 
	C1118.437256,533.309326 1117.825195,523.282715 1115.941284,513.510620 
	C1113.199585,499.289429 1097.817383,488.633423 1085.466919,488.813965 
	C1049.484741,489.339905 1013.489868,489.000671 976.500000,489.000671 
z"/>
<path fill="#377DFF" opacity="1.000000" stroke="none" 
	d="
M1621.996094,241.000534 
	C1628.237671,241.355728 1634.121216,241.053497 1639.684204,242.246521 
	C1645.534912,243.501251 1648.784790,249.170761 1649.030640,255.230515 
	C1649.755859,273.110321 1644.037109,289.117035 1633.237305,302.838837 
	C1625.322388,312.895447 1614.747925,319.912933 1602.204224,324.301880 
	C1592.873779,327.566589 1583.655151,328.018860 1574.122925,328.014526 
	C1511.301025,327.986053 1448.478516,327.859253 1385.657471,328.092804 
	C1368.696289,328.155853 1355.748535,336.084259 1348.865479,351.793304 
	C1343.040771,365.086731 1345.769409,377.579987 1354.275757,389.370453 
	C1361.844727,399.861603 1372.253296,402.963989 1384.221680,402.977264 
	C1433.546021,403.031952 1482.870605,402.935028 1532.194702,403.045471 
	C1544.690918,403.073456 1556.768677,406.024231 1568.446655,410.208344 
	C1584.520630,415.967377 1598.661987,424.951935 1611.217896,436.615875 
	C1624.711060,449.150635 1635.833862,463.390289 1642.046021,480.744141 
	C1645.679199,490.894012 1648.150024,501.607788 1649.840576,512.274414 
	C1653.330444,534.294617 1649.886475,555.638794 1640.995361,576.024475 
	C1631.552979,597.674622 1617.161133,615.360413 1597.844604,629.064941 
	C1588.395996,635.768433 1578.547974,641.680603 1567.441162,645.091187 
	C1558.313721,647.893860 1549.291016,651.039124 1539.457520,651.064026 
	C1450.876343,651.288452 1362.295654,651.681152 1273.714600,651.979248 
	C1264.407593,652.010559 1256.851440,645.286377 1256.975098,634.959961 
	C1257.299927,607.816711 1270.296509,588.151489 1292.740356,574.060913 
	C1303.251221,567.462097 1314.793335,564.911133 1327.196777,564.936707 
	C1392.684692,565.071655 1458.172852,565.029541 1523.661011,564.961548 
	C1531.569580,564.953308 1539.236328,563.452271 1545.788574,558.606567 
	C1561.234619,547.183472 1567.658081,529.899048 1559.753784,512.296387 
	C1553.805298,499.049530 1541.946777,490.193024 1526.742676,490.107025 
	C1476.586670,489.823334 1426.427612,490.138824 1376.270996,489.920074 
	C1360.131592,489.849701 1344.615967,485.982819 1330.085693,478.952698 
	C1310.000488,469.235016 1293.357788,455.169586 1280.575073,436.901154 
	C1273.969238,427.460541 1269.793091,416.764099 1265.608032,405.923126 
	C1258.922241,388.604248 1258.326538,370.923035 1259.246704,353.059326 
	C1259.665527,344.930176 1262.365112,336.831909 1264.695190,328.915375 
	C1266.553833,322.600677 1269.335693,316.547729 1271.855591,310.439606 
	C1279.563354,291.757019 1292.929443,277.757507 1308.749146,265.713135 
	C1320.817505,256.524841 1334.005615,249.491592 1348.683838,245.890930 
	C1358.448730,243.495514 1368.570312,241.255356 1378.542725,241.209549 
	C1459.526123,240.837494 1540.511963,241.000504 1621.996094,241.000534 
z"/>
<path fill="#377DFF" opacity="1.000000" stroke="none" 
	d="
M2594.782959,371.658997 
	C2590.178467,379.085815 2588.184082,387.065582 2588.116211,395.155701 
	C2587.574707,459.736755 2587.516113,524.322144 2586.858643,588.901611 
	C2586.712158,603.286072 2580.396729,615.985229 2571.377930,626.985229 
	C2564.009277,635.972595 2554.872070,643.064087 2543.751465,646.944031 
	C2538.435547,648.798706 2532.838379,650.111328 2527.260010,650.867920 
	C2522.506348,651.512695 2517.418945,651.829041 2512.798828,650.823120 
	C2505.787598,649.296692 2502.000000,643.359802 2502.000000,636.145569 
	C2501.999756,510.837524 2502.107422,385.529266 2501.864258,260.221710 
	C2501.833740,244.497299 2512.832764,240.632156 2524.019531,242.052078 
	C2535.106201,243.459320 2545.562500,246.723999 2554.807617,253.044876 
	C2560.409424,256.874695 2565.795654,261.116394 2570.765869,265.726135 
	C2572.761230,267.576874 2573.911377,267.545837 2575.942627,266.550507 
	C2585.247314,261.991943 2594.343994,256.869812 2603.982422,253.165436 
	C2618.062744,247.754044 2632.391113,243.004578 2647.861572,242.944595 
	C2694.783447,242.762634 2741.709229,241.790161 2788.623535,242.216339 
	C2814.387207,242.450394 2838.408691,250.693970 2860.824219,263.393372 
	C2873.194824,270.401764 2884.451660,278.891357 2894.466553,288.983704 
	C2905.860352,300.465698 2915.053711,313.538391 2922.458008,327.912811 
	C2932.260010,346.942841 2938.137207,366.853760 2938.072021,388.520264 
	C2937.873779,454.506378 2938.017578,520.493408 2937.986084,586.480103 
	C2937.979492,600.365967 2933.244141,612.894226 2924.595215,623.378052 
	C2918.661865,630.570251 2911.427490,637.010986 2903.786377,642.381531 
	C2896.238525,647.686707 2887.379150,650.985596 2877.747559,651.011536 
	C2873.382568,651.023315 2868.864502,651.908325 2864.685547,651.062744 
	C2856.030518,649.311340 2852.037109,643.792969 2852.012939,634.959656 
	C2851.968262,618.463135 2852.000000,601.966370 2852.000000,585.469727 
	C2852.000000,523.148926 2852.146240,460.827606 2851.895752,398.507843 
	C2851.833984,383.150543 2845.704102,369.729492 2836.242432,357.642975 
	C2826.763672,345.535156 2814.552246,337.557953 2800.191406,332.812439 
	C2795.314453,331.200867 2790.008545,330.143433 2784.892334,330.118866 
	C2741.568604,329.910675 2698.239746,329.673767 2654.921143,330.189117 
	C2641.041748,330.354187 2628.362061,335.755524 2617.167969,344.281128 
	C2609.065674,350.451782 2602.499756,357.950470 2597.075684,366.493225 
	C2596.146729,367.956451 2595.671875,369.707886 2594.782959,371.658997 
z"/>
<path fill="#377DFF" opacity="1.000000" stroke="none" 
	d="
M1898.998779,328.999481 
	C1880.862549,328.999481 1863.225830,328.999481 1844.999878,328.999481 
	C1844.999878,331.088104 1844.999756,332.858154 1844.999756,334.628235 
	C1844.999756,391.291992 1844.623169,447.959869 1845.236328,504.616974 
	C1845.413330,520.983826 1847.414185,537.551819 1854.429077,552.825500 
	C1858.469849,561.623169 1864.784668,567.088989 1875.192017,568.186584 
	C1890.965210,569.850037 1906.437012,568.778870 1921.945923,566.091614 
	C1934.467041,563.921997 1947.041504,562.062012 1959.583252,560.008911 
	C1969.958496,558.310486 1977.711670,567.671387 1978.039307,575.981384 
	C1978.517090,588.100952 1977.146729,599.966248 1971.944702,610.941345 
	C1965.631348,624.260925 1956.038940,635.092285 1942.859131,641.823486 
	C1929.641602,648.573975 1915.349609,651.675110 1900.333374,651.077942 
	C1895.755981,650.895935 1891.124268,652.073792 1886.547241,651.888916 
	C1871.718384,651.289856 1856.856445,650.818237 1842.101807,649.348145 
	C1834.116821,648.552490 1825.847534,646.901001 1818.577148,643.673950 
	C1811.169922,640.386108 1804.179443,635.401306 1798.174194,629.887573 
	C1788.825439,621.303833 1781.766968,610.707642 1775.224976,599.776550 
	C1770.109131,591.228271 1765.911377,582.386047 1763.973267,572.627625 
	C1762.390015,564.654907 1760.235840,556.592163 1760.167114,548.553711 
	C1759.547485,476.128967 1759.332275,403.700806 1758.998901,331.273651 
	C1758.995117,330.443665 1758.998413,329.613708 1758.998413,327.999817 
	C1757.130737,327.999817 1755.386963,327.999817 1753.643188,327.999817 
	C1737.144043,327.999847 1720.630493,327.585724 1704.150879,328.151764 
	C1693.905151,328.503723 1688.429443,318.500580 1689.146484,310.824371 
	C1689.807007,303.753693 1691.325439,296.713806 1693.037964,289.802063 
	C1695.835449,278.511047 1702.132202,269.110992 1710.539917,261.272186 
	C1717.417480,254.860046 1724.691895,248.720093 1733.999023,246.065933 
	C1739.897705,244.383804 1745.976685,243.331543 1751.977661,242.010208 
	C1753.869385,241.593643 1755.770630,241.220596 1757.999512,240.758881 
	C1757.999512,238.668274 1757.999634,236.691010 1757.999634,234.713730 
	C1757.999634,206.548508 1757.990479,178.383286 1758.004883,150.218063 
	C1758.009399,141.244431 1765.232544,134.033371 1774.130127,133.995758 
	C1798.958862,133.890778 1817.815918,144.846146 1832.348755,164.594879 
	C1841.088989,176.471878 1844.619385,189.766541 1844.939941,204.103745 
	C1845.225830,216.891586 1845.000000,229.690872 1845.000000,242.999680 
	C1847.171021,242.999680 1848.950928,242.999680 1850.730957,242.999680 
	C1887.729004,242.999741 1924.728271,243.156403 1961.724365,242.882523 
	C1970.270386,242.819260 1978.292603,247.631134 1977.148315,261.351898 
	C1976.481445,269.348450 1976.402222,277.418427 1972.970947,284.798065 
	C1967.550537,296.455719 1960.400513,306.840454 1949.869019,314.644470 
	C1937.547852,323.774536 1924.114746,329.460175 1908.497925,329.011810 
	C1905.500488,328.925751 1902.498413,328.999481 1898.998779,328.999481 
z"/>
<path fill="#377DFF" opacity="1.000000" stroke="none" 
	d="
M2131.985352,245.957397 
	C2141.851807,244.277008 2151.288574,241.315338 2160.753174,241.222519 
	C2209.570068,240.743744 2258.394287,241.000198 2307.215820,241.000183 
	C2316.969238,241.000183 2323.421387,246.981522 2322.822754,256.857269 
	C2322.363525,264.431274 2321.177490,272.185944 2318.829346,279.375244 
	C2313.499512,295.696106 2303.736572,308.862030 2288.714111,317.890350 
	C2279.709473,323.301971 2269.786133,325.382935 2259.682617,326.930878 
	C2254.983643,327.650787 2250.177734,327.935059 2245.418213,327.954651 
	C2221.424561,328.053314 2197.426270,328.257172 2173.437256,327.906342 
	C2158.187256,327.683350 2144.915039,333.013245 2133.062256,341.677277 
	C2119.780518,351.385803 2110.211914,364.241699 2105.989014,380.439514 
	C2104.520508,386.072937 2103.138672,391.943817 2103.125244,397.709564 
	C2102.939941,477.523285 2103.000488,557.337646 2102.998535,637.151794 
	C2102.998291,644.517029 2096.431885,650.578064 2089.055420,651.088806 
	C2074.433838,652.101196 2060.852539,648.238953 2048.850586,640.761780 
	C2035.214966,632.267029 2024.867065,620.450439 2019.847168,604.440918 
	C2016.639526,594.210754 2015.953003,583.928040 2015.959717,573.377625 
	C2016.026123,467.902954 2016.006714,362.428253 2015.984375,256.953552 
	C2015.983032,250.445618 2018.730225,245.577072 2024.248901,242.270477 
	C2025.313477,241.632614 2026.607178,241.141296 2027.832397,241.042084 
	C2050.905518,239.173584 2069.510254,248.234818 2085.080078,264.614166 
	C2085.628662,265.191345 2085.986816,265.949493 2085.677490,265.483154 
	C2101.126465,258.924072 2116.347412,252.461777 2131.985352,245.957397 
z"/>
<path fill="#377DFF" opacity="1.000000" stroke="none" 
	d="
M693.999817,399.000000 
	C693.999878,461.824524 694.166321,524.149841 693.860107,586.472900 
	C693.798584,598.984497 689.015930,610.199768 681.434570,620.495483 
	C673.487549,631.287537 663.930054,639.803589 651.593994,644.642822 
	C644.745361,647.329468 637.183044,648.158997 629.997253,650.035522 
	C623.949280,651.614929 618.682861,650.407593 613.350769,647.189087 
	C608.976868,644.548950 608.104919,640.462463 607.036011,636.248718 
	C606.797668,635.309204 607.000305,634.257874 607.000305,633.257996 
	C607.000183,468.781250 606.957825,304.304474 607.088745,139.827850 
	C607.098145,127.988853 610.443176,116.722420 616.294739,106.319519 
	C623.196533,94.049538 633.180786,84.764763 645.320496,78.032898 
	C657.111206,71.494583 670.148376,69.737740 683.442200,71.142044 
	C688.793701,71.707344 693.361267,77.587791 693.980286,83.046852 
	C694.110901,84.198555 693.999756,85.377693 693.999756,86.544197 
	C693.999817,190.529465 693.999817,294.514740 693.999817,399.000000 
z"/>
<path fill="#377DFF" opacity="1.000000" stroke="none" 
	d="
M2344.999268,513.000000 
	C2344.999268,446.516907 2344.863525,380.533356 2345.082275,314.550995 
	C2345.147949,294.737000 2352.146973,277.265076 2366.362061,263.264496 
	C2381.267822,248.584091 2399.320557,241.365005 2420.402100,243.092041 
	C2427.376953,243.663437 2432.036621,248.489212 2432.985107,258.600372 
	C2433.077881,259.591492 2433.000000,260.598663 2433.000000,261.598419 
	C2433.000000,366.904755 2432.984131,472.211121 2433.015625,577.517456 
	C2433.020996,595.610291 2428.058350,612.102112 2416.339844,625.941101 
	C2405.645508,638.570496 2391.979980,647.080017 2375.737793,650.865967 
	C2371.462402,651.862549 2366.889893,652.086792 2362.482422,651.916748 
	C2350.675293,651.461243 2345.306885,647.539185 2345.162354,634.467163 
	C2344.715576,594.149109 2344.999268,553.822998 2344.999268,513.000000 
z"/>
<path fill="#377DFF" opacity="1.000000" stroke="none" 
	d="
M2344.999268,165.989258 
	C2344.999268,156.668442 2345.002930,147.845413 2344.998535,139.022369 
	C2344.992920,128.046875 2347.709473,117.704468 2353.272461,108.334648 
	C2363.847412,90.523247 2379.220215,78.448936 2399.355713,73.552094 
	C2406.289062,71.866013 2414.043457,72.256668 2421.213379,73.234451 
	C2427.598877,74.105217 2430.985840,79.808258 2430.994629,86.311546 
	C2431.012939,99.629318 2430.840576,112.949554 2431.042969,126.264267 
	C2431.266357,140.957336 2426.010986,153.684418 2417.337402,165.098953 
	C2408.069580,177.295578 2395.990967,185.963516 2381.247070,190.094559 
	C2374.277588,192.047318 2366.789062,192.620697 2359.505859,192.844650 
	C2352.550049,193.058563 2345.285156,184.552246 2345.020752,176.974060 
	C2344.898926,173.482391 2344.999512,169.982956 2344.999268,165.989258 
z"/>
<path fill="#00369B" opacity="1.000000" stroke="none" 
	d="
M935.615784,913.307617 
	C929.031250,902.115173 928.247986,890.506897 929.846008,878.194458 
	C931.446899,865.859680 937.341980,856.568665 947.530579,850.130981 
	C958.749329,843.042358 970.654663,843.269165 982.271179,849.275085 
	C985.245667,850.812927 987.430420,853.877991 990.657166,856.871521 
	C990.886780,853.379211 991.073242,850.543274 991.282288,847.364136 
	C995.682556,847.364136 999.925049,847.364136 1005.104126,847.364136 
	C1004.730713,851.805664 1004.109619,856.142212 1004.051147,860.486389 
	C1003.900940,871.646362 1004.000305,882.809692 1003.999878,893.971680 
	C1003.999451,905.133667 1004.335876,916.308960 1003.897827,927.453735 
	C1003.507385,937.386536 1000.297668,946.461487 992.899292,953.592407 
	C987.087463,959.194092 979.610657,961.911987 972.059875,962.742493 
	C960.893127,963.970886 949.670471,963.385864 939.061768,958.274170 
	C935.859924,956.731506 935.609558,955.067322 936.449097,952.522888 
	C937.367310,949.740112 938.647888,947.076965 939.829102,944.219971 
	C942.681091,945.175049 945.877747,945.656616 948.418213,947.210876 
	C955.066711,951.278259 962.384155,950.518799 969.280273,949.743774 
	C976.680847,948.911987 983.307556,944.933411 985.889587,937.386230 
	C987.977539,931.283447 988.715393,924.718689 989.153198,917.614014 
	C979.794556,928.036987 967.998108,929.761963 956.029358,927.586365 
	C947.835815,926.096985 940.616272,921.087341 935.615784,913.307617 
M945.002319,883.805908 
	C944.390015,891.180664 945.476807,898.297974 949.099976,904.767944 
	C955.903442,916.916870 971.045959,918.574219 981.074585,910.577515 
	C991.452515,902.302185 990.782837,875.934509 985.412109,867.927307 
	C979.015808,858.390991 969.731750,855.366821 959.284180,860.102661 
	C949.635315,864.476624 946.778198,873.423035 945.002319,883.805908 
z"/>
<path fill="#00369B" opacity="1.000000" stroke="none" 
	d="
M136.960419,928.000000 
	C133.995071,928.000000 131.500214,928.000000 128.111862,928.000000 
	C125.752190,918.591003 123.210762,909.168335 121.048882,899.659424 
	C118.257057,887.379883 112.359383,880.130249 97.898834,880.005615 
	C94.574059,879.976990 91.248825,880.001404 87.172188,880.001404 
	C87.172188,895.976135 87.172188,911.672791 87.172188,927.678345 
	C81.515762,927.678345 76.613701,927.678345 71.354675,927.678345 
	C71.354675,890.914124 71.354675,854.345032 71.354675,817.430969 
	C89.110924,813.982483 106.683311,811.851807 124.235962,818.846802 
	C133.558701,822.562012 140.578262,832.293640 141.099121,842.213867 
	C141.769882,854.989014 137.655777,865.067566 126.577591,871.893433 
	C125.061363,872.827637 123.366844,873.472351 121.601570,874.325256 
	C129.724411,879.109009 134.074966,886.128601 136.124573,895.113708 
	C138.587082,905.908813 141.776962,916.538025 144.856323,928.000000 
	C142.255630,928.000000 139.843262,928.000000 136.960419,928.000000 
M87.000496,847.500366 
	C87.000496,854.248047 87.000496,860.995667 87.000496,867.984192 
	C92.753937,867.984192 97.603142,868.297913 102.395668,867.910583 
	C109.569740,867.330750 116.104576,865.408875 121.193939,859.478760 
	C127.810249,851.769531 126.642357,835.417847 115.009354,830.047180 
	C107.465675,826.564514 99.574280,826.677612 91.625603,827.111206 
	C88.486092,827.282410 86.621559,828.744324 86.915382,832.510803 
	C87.277138,837.148132 87.000961,841.835144 87.000496,847.500366 
z"/>
<path fill="#00369B" opacity="1.000000" stroke="none" 
	d="
M1280.992310,902.000000 
	C1280.994141,893.000061 1281.318970,884.484314 1280.906250,876.004578 
	C1280.497803,867.613098 1275.885986,860.939758 1267.697266,859.073914 
	C1259.263306,857.152222 1249.333862,861.838989 1246.112305,870.459106 
	C1244.875122,873.769226 1244.149414,877.457275 1244.090576,880.988159 
	C1243.862793,894.650940 1243.997681,908.319824 1243.997559,921.986389 
	C1243.997437,923.778992 1243.997559,925.571655 1243.997559,927.671387 
	C1238.522827,927.671387 1233.620850,927.671387 1228.358154,927.671387 
	C1228.358154,888.587952 1228.358154,849.685730 1228.358154,810.391235 
	C1233.340942,810.391235 1238.241943,810.391235 1243.803833,810.391235 
	C1243.803833,825.572388 1243.803833,840.774170 1243.803833,857.013306 
	C1251.613037,849.013672 1259.921631,844.765198 1270.151855,844.998047 
	C1282.721069,845.284119 1294.720459,854.689209 1295.782349,867.030823 
	C1297.500000,886.990112 1297.946411,907.058777 1298.953369,927.566833 
	C1292.411743,927.566833 1287.171021,927.566833 1280.992310,927.566833 
	C1280.992310,919.326965 1280.992310,910.913513 1280.992310,902.000000 
z"/>
<path fill="#00369B" opacity="1.000000" stroke="none" 
	d="
M1550.402344,927.820923 
	C1549.630737,926.318909 1549.041504,924.920532 1549.039429,923.521240 
	C1548.989014,889.043396 1548.997925,854.565430 1549.012817,820.087524 
	C1549.013306,818.954773 1549.185669,817.822205 1549.305298,816.355042 
	C1569.739380,816.355042 1589.965820,816.355042 1610.596558,816.355042 
	C1610.596558,820.318359 1610.596558,824.220154 1610.596558,828.876282 
	C1595.644287,828.876282 1580.616943,828.876282 1565.302979,828.876282 
	C1565.302979,840.520752 1565.302979,851.417664 1565.302979,862.889160 
	C1579.434937,862.889160 1593.337891,862.889160 1607.616089,862.889160 
	C1607.616089,867.355408 1607.616089,871.257263 1607.616089,875.735596 
	C1593.727783,875.735596 1579.822388,875.735596 1565.461670,875.735596 
	C1565.461670,888.981689 1565.461670,901.662842 1565.461670,914.922241 
	C1581.135010,914.922241 1596.702881,914.922241 1612.631226,914.922241 
	C1612.631226,919.388733 1612.631226,923.290222 1612.631226,927.924194 
	C1592.012573,927.924194 1571.435425,927.924194 1550.402344,927.820923 
z"/>
<path fill="#00369B" opacity="1.000000" stroke="none" 
	d="
M532.265625,928.934326 
	C515.518005,924.290527 505.423859,908.761780 504.976044,892.610901 
	C504.708344,882.956299 505.559357,873.747314 510.297668,864.887329 
	C514.656921,856.736145 520.997986,851.307739 529.219299,848.011536 
	C544.497314,841.886475 563.524841,844.450134 575.077209,858.165100 
	C579.998901,864.008057 582.568909,870.891968 583.640991,878.358948 
	C585.439209,890.883179 584.541748,903.037842 577.062561,913.742737 
	C569.835449,924.086731 559.837463,929.906128 546.992920,929.944763 
	C542.222961,929.959106 537.451111,929.342041 532.265625,928.934326 
M567.974487,881.993896 
	C567.295715,879.455444 566.615906,876.917175 565.938354,874.378418 
	C563.852478,866.562866 555.545227,858.700439 549.202942,857.961426 
	C535.104004,856.318848 528.039307,863.208557 524.445557,871.289246 
	C519.771057,881.800110 519.427307,892.709900 524.069824,903.279175 
	C527.813538,911.802246 534.362976,917.543457 544.103577,917.905640 
	C553.511597,918.255493 559.755432,912.929260 563.975464,904.999756 
	C567.652954,898.089722 568.521545,890.605408 567.974487,881.993896 
z"/>
<path fill="#00369B" opacity="1.000000" stroke="none" 
	d="
M2343.135986,930.000244 
	C2324.495117,930.012512 2309.527832,914.000793 2307.836670,896.716125 
	C2306.885986,886.998718 2307.203613,877.636841 2310.838623,868.659851 
	C2316.388672,854.952515 2327.154053,847.038269 2341.465088,845.209167 
	C2354.480713,843.545593 2366.850098,846.492615 2376.144287,856.755249 
	C2382.743408,864.042297 2385.807617,872.686096 2386.318115,882.762085 
	C2386.845459,893.171509 2386.177734,903.008667 2380.562012,911.948730 
	C2372.021973,925.544128 2359.366699,931.020447 2343.135986,930.000244 
M2353.601074,858.272522 
	C2350.449219,858.182312 2347.298096,858.037354 2344.145752,858.013672 
	C2338.166504,857.968872 2333.491943,861.156311 2330.340332,865.556946 
	C2321.512451,877.882751 2320.671631,891.327759 2327.148926,904.934387 
	C2332.671387,916.534912 2347.174561,922.635071 2358.941162,913.713867 
	C2366.767334,907.780090 2373.614258,892.721436 2369.615234,879.130066 
	C2367.033691,870.357056 2363.569824,862.402100 2353.601074,858.272522 
z"/>
<path fill="#00369B" opacity="1.000000" stroke="none" 
	d="
M1801.000000,905.994202 
	C1801.000000,913.398499 1801.000000,920.304077 1801.000000,927.613159 
	C1797.040894,927.613159 1792.466431,927.613159 1787.365967,927.613159 
	C1787.182983,925.292847 1786.993164,922.886475 1786.831665,920.839294 
	C1781.922852,923.528503 1777.096313,926.760498 1771.834839,928.945374 
	C1755.792725,935.606873 1737.127319,923.912964 1736.132568,906.867371 
	C1735.474365,895.589294 1745.418335,883.019287 1757.851685,880.079895 
	C1766.606567,878.009949 1775.515137,876.590332 1784.518188,874.848816 
	C1785.459961,863.736938 1778.553223,856.639954 1766.601807,857.913818 
	C1759.695068,858.649963 1752.916748,860.592468 1745.555054,862.099670 
	C1745.591553,862.187622 1745.240479,861.503723 1745.017334,860.780334 
	C1742.320923,852.040344 1743.295532,849.867615 1752.596680,847.479004 
	C1758.136597,846.056274 1763.977295,845.091370 1769.674316,845.131714 
	C1785.361328,845.242493 1794.453003,850.781189 1799.310059,864.862122 
	C1800.720825,868.952026 1800.817505,873.602417 1800.929199,878.010742 
	C1801.161011,887.167053 1800.999634,896.333313 1801.000000,905.994202 
M1782.087280,909.404236 
	C1786.642212,902.796265 1784.711182,895.535400 1784.804810,888.350708 
	C1776.012207,887.236572 1768.189209,888.588257 1760.777588,892.110046 
	C1754.373047,895.153259 1751.541870,902.555969 1753.845215,909.557190 
	C1755.902954,915.811768 1761.554321,919.057007 1768.617676,917.917053 
	C1774.000854,917.048218 1778.593628,914.781433 1782.087280,909.404236 
z"/>
<path fill="#00369B" opacity="1.000000" stroke="none" 
	d="
M1383.273560,916.098572 
	C1394.418701,917.915527 1405.001221,917.712952 1415.560547,912.930786 
	C1416.623901,917.123413 1417.602295,920.981384 1418.757080,925.534973 
	C1400.428467,930.733032 1383.025024,934.170898 1366.351562,923.069397 
	C1356.432617,916.465088 1352.308350,906.257263 1351.105225,894.941528 
	C1349.916992,883.768127 1351.598999,872.732422 1357.146240,862.904724 
	C1360.910278,856.236389 1366.657227,851.024780 1374.008057,847.993530 
	C1383.597168,844.039307 1393.316650,843.746887 1402.923950,847.539307 
	C1414.562866,852.133667 1419.619873,861.900635 1421.920044,873.422424 
	C1422.655518,877.106323 1422.600586,880.942688 1423.014526,884.697388 
	C1423.527344,889.348694 1421.798950,891.181274 1416.873657,891.094849 
	C1401.895264,890.831604 1386.909180,890.999756 1371.926147,891.000000 
	C1370.127441,891.000000 1368.328613,891.000000 1366.572388,891.000000 
	C1365.773438,901.717590 1372.507812,911.782471 1383.273560,916.098572 
M1396.363403,858.900085 
	C1381.661987,851.680908 1366.207275,866.559326 1367.194458,879.700928 
	C1380.264893,879.700928 1393.329224,879.700928 1406.331299,879.700928 
	C1408.034180,870.791138 1403.965088,862.133972 1396.363403,858.900085 
z"/>
<path fill="#00369B" opacity="1.000000" stroke="none" 
	d="
M228.145432,844.999512 
	C254.849106,843.219543 267.433716,869.707458 262.311890,890.963623 
	C244.182312,890.963623 225.920578,890.963623 207.735626,890.963623 
	C205.801483,905.162048 218.157455,916.750183 229.253876,916.956909 
	C238.164703,917.122925 247.221558,917.941284 256.286926,912.737244 
	C257.297760,917.158020 258.189697,921.058716 259.178314,925.382446 
	C242.903549,931.374817 226.365356,933.173767 210.726486,925.590515 
	C199.794266,920.289551 193.455078,909.856628 192.133759,897.402100 
	C190.946823,886.214172 191.662277,875.141541 196.956650,864.815552 
	C203.387482,852.273193 213.864761,846.060486 228.145432,844.999512 
M234.270020,857.997131 
	C221.848999,853.890930 208.784775,863.491333 207.450974,879.674744 
	C220.827637,879.674744 234.185242,879.674744 247.535324,879.674744 
	C247.718597,869.560364 245.089783,861.771545 234.270020,857.997131 
z"/>
<path fill="#00369B" opacity="1.000000" stroke="none" 
	d="
M2921.652344,928.665527 
	C2906.842773,931.047058 2892.746094,931.774597 2880.173340,922.104187 
	C2874.263428,917.558472 2870.392822,911.641174 2868.299316,904.859558 
	C2864.544434,892.694824 2865.275391,880.547913 2869.942871,868.546753 
	C2879.035889,845.167603 2906.708984,837.819702 2925.768555,852.039368 
	C2933.366211,857.707947 2936.697754,866.710754 2937.887939,876.058777 
	C2938.487061,880.765869 2937.992676,885.612183 2937.992676,891.047058 
	C2918.739746,891.047058 2900.046631,891.047058 2881.347900,891.047058 
	C2881.604004,900.005371 2885.228027,906.866699 2891.148682,912.280701 
	C2893.549805,914.476257 2897.157959,916.150879 2900.384521,916.496521 
	C2910.372803,917.566040 2920.451904,917.969910 2929.969727,913.309692 
	C2930.138916,913.411377 2930.563965,913.512939 2930.642578,913.736511 
	C2934.288574,924.085388 2935.989746,926.557739 2921.652344,928.665527 
M2914.206543,860.074036 
	C2907.405273,856.014465 2900.426514,855.879395 2893.657471,859.822449 
	C2886.280518,864.119873 2883.091064,871.097046 2881.939697,879.663879 
	C2895.769043,879.663879 2909.151367,879.663879 2922.919678,879.663879 
	C2923.154297,871.742798 2919.993164,865.694519 2914.206543,860.074036 
z"/>
<path fill="#00369B" opacity="1.000000" stroke="none" 
	d="
M806.000488,922.822815 
	C806.000061,897.414917 806.000061,872.488525 806.000061,847.021790 
	C809.119446,847.021790 812.797791,846.677307 816.349731,847.197021 
	C817.706909,847.395569 819.318176,849.387146 819.832642,850.896118 
	C820.436890,852.668335 819.974121,854.804382 819.974121,856.891479 
	C824.180359,853.924927 827.891724,850.753723 832.080688,848.451721 
	C847.637878,839.902710 869.790466,847.426086 873.377258,865.791504 
	C874.067200,869.323975 874.886597,872.908508 874.927124,876.477173 
	C875.098999,891.629211 875.000061,906.784241 875.000122,921.938232 
	C875.000122,923.729248 875.000122,925.520325 875.000122,927.653076 
	C869.904663,927.653076 865.338745,927.653076 860.260498,927.653076 
	C860.171021,925.801575 860.014526,924.033875 860.011536,922.265930 
	C859.990112,909.609863 860.406189,896.934937 859.820496,884.306030 
	C859.546570,878.398804 857.854492,872.407532 855.897522,866.769348 
	C853.851196,860.873840 844.549194,857.119019 838.612061,858.982788 
	C826.535950,862.773804 822.005371,868.895996 822.003052,881.437683 
	C822.000610,894.926392 822.002625,908.415100 822.002686,921.903809 
	C822.002686,923.701843 822.002625,925.499878 822.002625,927.641357 
	C816.600525,927.641357 811.701782,927.641357 806.376038,927.641357 
	C806.248962,926.172241 806.124939,924.738281 806.000488,922.822815 
z"/>
<path fill="#00369B" opacity="1.000000" stroke="none" 
	d="
M2431.000000,853.037048 
	C2431.073975,850.938477 2431.148193,849.308350 2431.239746,847.289673 
	C2434.744385,847.106995 2437.995605,846.937500 2441.737061,846.742493 
	C2442.166016,842.741699 2442.714600,838.862183 2442.978271,834.963379 
	C2444.450195,813.200012 2464.392090,802.190369 2484.717773,810.592285 
	C2484.080322,814.501648 2483.429688,818.490356 2482.709961,822.903931 
	C2475.599854,819.887756 2468.622314,819.587585 2463.251709,825.136841 
	C2457.710449,830.862061 2457.438721,838.480347 2458.299805,846.783325 
	C2464.625732,846.783325 2471.003906,846.783325 2476.983887,846.783325 
	C2477.527100,847.776733 2477.804199,848.051331 2477.813965,848.335205 
	C2478.317871,862.903809 2478.697754,859.632935 2466.937744,859.985229 
	C2464.159668,860.068481 2461.376953,859.997559 2458.034180,859.997559 
	C2458.034180,882.846130 2458.034180,905.079956 2458.034180,927.652527 
	C2452.565918,927.652527 2447.665039,927.652527 2442.189941,927.652527 
	C2442.189941,905.314087 2442.189941,883.080688 2442.189941,860.296631 
	C2438.413574,860.116882 2435.162842,859.962158 2431.000000,859.763977 
	C2431.000000,857.653625 2431.000000,855.579529 2431.000000,853.037048 
z"/>
<path fill="#00369B" opacity="1.000000" stroke="none" 
	d="
M2832.286621,814.469055 
	C2831.656494,817.432190 2831.180908,820.011658 2830.669434,822.785767 
	C2824.913330,821.015503 2819.060791,818.850891 2814.113525,823.142944 
	C2811.182617,825.685974 2808.606689,829.307007 2807.366699,832.952026 
	C2805.977051,837.038086 2806.275146,841.698181 2805.761719,846.889832 
	C2812.332764,846.889832 2818.377441,846.889832 2824.699219,846.889832 
	C2824.699219,851.520630 2824.699219,855.419617 2824.699219,859.894348 
	C2818.566162,859.894348 2812.656494,859.894348 2806.205566,859.894348 
	C2806.205566,882.678955 2806.205566,904.901306 2806.205566,927.559204 
	C2800.645020,927.559204 2795.629395,927.559204 2790.051514,927.559204 
	C2790.051514,905.164795 2790.051514,882.941711 2790.051514,860.288696 
	C2786.281738,860.100830 2783.032227,859.938843 2779.395508,859.757629 
	C2779.395508,855.721436 2779.395508,851.818665 2779.395508,847.327209 
	C2782.645996,847.131104 2786.022461,846.927490 2788.706299,846.765625 
	C2790.523682,838.811279 2791.663330,831.147827 2794.078857,823.910095 
	C2797.280518,814.316284 2807.248047,807.911255 2817.440430,808.052551 
	C2821.706299,808.111694 2826.004150,808.512634 2830.210693,809.216187 
	C2832.697998,809.632263 2833.753174,811.516357 2832.286621,814.469055 
z"/>
<path fill="#00369B" opacity="1.000000" stroke="none" 
	d="
M2598.002197,859.000000 
	C2598.002197,844.560303 2598.002197,830.620605 2598.002197,816.343872 
	C2603.772705,816.343872 2609.003662,816.343872 2614.777588,816.343872 
	C2614.777588,848.989502 2614.777588,881.529419 2614.777588,914.810425 
	C2630.640381,914.810425 2645.987549,914.810425 2661.661133,914.810425 
	C2661.661133,919.447205 2661.661133,923.346497 2661.661133,927.624268 
	C2640.646973,927.624268 2619.763428,927.624268 2598.002197,927.624268 
	C2598.002197,904.934692 2598.002197,882.217346 2598.002197,859.000000 
z"/>
<path fill="#00369B" opacity="1.000000" stroke="none" 
	d="
M1164.860474,929.999084 
	C1159.706665,929.320557 1154.794556,929.303894 1150.395508,927.793335 
	C1145.063232,925.962219 1141.563721,921.420776 1141.075806,915.780151 
	C1140.050293,903.925049 1139.534790,892.020447 1139.045410,880.126465 
	C1138.779785,873.672485 1138.998047,867.198608 1138.998047,860.143738 
	C1134.961670,860.143738 1131.383911,860.143738 1127.408936,860.143738 
	C1127.408936,855.656250 1127.408936,851.755554 1127.408936,847.273254 
	C1130.916504,847.117859 1134.501465,846.958984 1138.998779,846.759644 
	C1138.998779,841.991516 1139.131836,837.234680 1138.954102,832.489441 
	C1138.826172,829.076904 1139.415039,826.920532 1143.532471,826.530396 
	C1147.058105,826.196350 1150.486694,824.835999 1154.769897,823.717712 
	C1154.769897,831.594971 1154.769897,838.941772 1154.769897,846.853455 
	C1162.059326,846.853455 1168.635620,846.853455 1175.600586,846.853455 
	C1175.600586,851.328308 1175.600586,855.231934 1175.600586,859.716431 
	C1169.109497,859.716431 1162.529785,859.716431 1156.485107,859.716431 
	C1155.726318,860.523987 1155.305298,860.762268 1155.303467,861.003906 
	C1155.189819,875.658203 1154.605103,890.333252 1155.197144,904.960510 
	C1155.624512,915.525269 1162.280029,918.734314 1172.959106,916.344299 
	C1177.811035,926.805542 1174.909546,930.713013 1164.860474,929.999084 
z"/>
<path fill="#00369B" opacity="1.000000" stroke="none" 
	d="
M446.091248,846.999512 
	C450.523987,846.999512 454.471222,846.999512 458.699432,846.999512 
	C458.699432,851.521484 458.699432,855.420349 458.699432,859.896729 
	C452.226959,859.896729 445.985992,859.896729 439.002319,859.896729 
	C439.002319,863.543762 439.002441,866.643799 439.002258,869.743774 
	C439.001648,881.230408 439.314575,892.728088 438.909088,904.200378 
	C438.528442,914.971619 445.621338,918.149658 454.317749,916.771973 
	C455.260620,916.622620 456.176727,916.304504 457.317383,916.009888 
	C457.634888,916.964600 457.892975,917.720093 458.137787,918.479919 
	C460.796051,926.729919 458.503510,930.120178 450.006500,929.948547 
	C444.321686,929.833740 438.508728,931.111511 433.096161,927.677307 
	C427.641815,924.216492 424.324554,919.518127 424.080566,913.226196 
	C423.501770,898.303894 423.325226,883.365906 423.007294,868.433777 
	C422.951599,865.817017 422.999390,863.198059 422.999390,860.030884 
	C418.819122,860.030884 415.244843,860.030884 411.340393,860.030884 
	C411.340393,855.564514 411.340393,851.663757 411.340393,847.262207 
	C415.010468,847.101440 418.593628,846.944519 422.999420,846.751465 
	C422.999420,842.380493 423.280548,838.104980 422.921051,833.883911 
	C422.555328,829.590271 423.532654,826.931946 428.299164,826.300110 
	C431.664917,825.853943 434.944580,824.758728 438.866394,823.806763 
	C438.866394,831.629822 438.866394,838.891846 438.866394,846.999451 
	C441.443695,846.999451 443.524750,846.999451 446.091248,846.999512 
z"/>
<path fill="#00359B" opacity="1.000000" stroke="none" 
	d="
M1885.059082,857.999939 
	C1875.941162,858.016663 1871.075439,862.066345 1872.080444,868.783630 
	C1872.813599,873.683105 1876.479980,876.158936 1880.738403,878.073914 
	C1887.827026,881.261536 1895.443115,883.227539 1901.355347,888.972961 
	C1907.793335,895.229065 1909.021851,902.665771 1907.542114,910.748718 
	C1905.966553,919.354980 1900.483032,925.265686 1892.237793,927.865601 
	C1880.563721,931.546570 1868.913086,931.220520 1857.445679,926.317932 
	C1854.484741,925.052124 1853.711670,924.103210 1854.855347,920.891174 
	C1857.942505,912.220581 1857.595703,912.656311 1866.482788,915.545288 
	C1871.439819,917.156677 1877.145630,917.658325 1882.332764,917.067871 
	C1888.913086,916.318787 1892.371948,912.166809 1892.858276,907.037292 
	C1893.198242,903.452698 1888.313477,897.078247 1883.864502,895.051636 
	C1877.964111,892.363892 1871.859985,889.985901 1866.321045,886.675659 
	C1858.910034,882.246643 1854.938354,874.975525 1856.314941,866.561218 
	C1857.872192,857.042847 1863.482178,850.142395 1873.334839,846.840332 
	C1882.153320,843.884888 1890.593384,844.931458 1899.136597,847.157715 
	C1904.510742,848.558044 1905.442627,850.306335 1903.900879,855.639465 
	C1903.276489,857.799561 1902.182617,859.823975 1901.651855,861.081726 
	C1895.945068,859.991638 1890.731567,858.995728 1885.059082,857.999939 
z"/>
<path fill="#00369B" opacity="1.000000" stroke="none" 
	d="
M364.966858,898.668823 
	C364.386932,904.605896 364.806152,910.477539 362.971619,915.531067 
	C359.459076,925.206909 350.945251,929.356628 341.302826,929.792969 
	C333.809845,930.132141 326.195251,928.877808 318.715973,927.778748 
	C316.383331,927.435974 312.502075,925.315063 312.483154,923.963867 
	C312.435425,920.562378 314.048218,917.080566 315.376984,913.784790 
	C315.554260,913.345032 318.073090,913.444397 319.284546,913.894470 
	C325.583160,916.234558 331.801971,919.125122 338.755676,917.591614 
	C346.879700,915.800171 349.657318,913.070862 349.992096,907.218506 
	C350.303711,901.770264 347.061737,897.987000 340.393890,894.918823 
	C334.167847,892.054016 327.881226,889.129089 322.164490,885.398254 
	C315.117432,880.799255 313.157776,873.550598 314.322479,865.445374 
	C315.723053,855.698425 321.562469,849.928650 330.742584,846.890503 
	C340.967285,843.506653 350.691559,844.652710 360.400238,848.862671 
	C362.992706,849.986877 363.233002,851.140137 362.226379,853.366699 
	C360.954254,856.180542 359.812897,859.053589 359.125427,860.687805 
	C352.045135,859.718750 345.802399,858.625854 339.512207,858.082825 
	C334.912811,857.685852 331.595825,860.110413 330.073792,864.496887 
	C328.514862,868.989380 329.499756,872.944580 333.834259,875.291687 
	C338.427673,877.778992 343.241638,879.862549 347.980927,882.076111 
	C355.451599,885.565552 362.018433,889.984863 364.966858,898.668823 
z"/>
<path fill="#00369B" opacity="1.000000" stroke="none" 
	d="
M2126.267090,903.599976 
	C2120.741699,880.949341 2125.471924,857.459412 2151.099854,847.594055 
	C2161.646484,843.534180 2173.089111,843.916565 2184.125732,847.616577 
	C2187.688965,848.811035 2188.750244,851.032166 2187.742188,854.418335 
	C2187.003418,856.900085 2186.072754,859.324646 2185.091553,862.168945 
	C2169.828369,855.732544 2155.157959,855.395874 2145.267334,870.157166 
	C2136.537354,883.186523 2138.299316,896.439209 2146.131104,906.748413 
	C2155.260498,918.765503 2167.556152,919.849243 2184.861816,913.388672 
	C2185.118652,913.568420 2185.528809,913.696960 2185.609619,913.936584 
	C2190.798828,929.326965 2187.829346,926.551208 2174.039307,929.581543 
	C2165.043945,931.558228 2155.229980,930.896423 2146.288330,926.700867 
	C2136.310547,922.019104 2129.205078,914.916199 2126.267090,903.599976 
z"/>
<path fill="#00369B" opacity="1.000000" stroke="none" 
	d="
M1964.905762,860.025818 
	C1961.249756,860.025818 1957.593750,860.025818 1953.469360,860.025818 
	C1953.469360,855.699646 1953.469360,851.680481 1953.469360,847.069946 
	C1957.125244,847.069946 1960.702637,847.069946 1964.941895,847.069946 
	C1964.941895,841.561340 1964.968384,836.622192 1964.931274,831.683472 
	C1964.910522,828.910522 1965.400391,827.085266 1968.920166,826.743408 
	C1972.785400,826.367920 1976.554443,825.001404 1980.957275,823.921570 
	C1980.957275,831.711121 1980.957275,838.975220 1980.957275,846.809204 
	C1988.010986,846.809204 1994.591187,846.809204 2001.578613,846.809204 
	C2001.578613,851.274231 2001.578613,855.171814 2001.578613,859.848999 
	C1994.994507,859.848999 1988.289062,859.848999 1981.000000,859.848999 
	C1981.000000,869.882874 1980.999756,879.161804 1981.000366,888.440796 
	C1981.000610,893.104675 1980.665405,897.798035 1981.069214,902.426819 
	C1982.142578,914.729004 1986.005859,918.950745 1999.255859,916.288879 
	C2002.118286,919.704651 2001.727539,924.045044 2000.297241,927.398560 
	C1999.584961,929.068420 1995.259521,929.675964 1992.502441,929.882629 
	C1988.398193,930.190430 1983.995117,930.538818 1980.146240,929.411621 
	C1971.256104,926.807861 1967.204834,919.851746 1965.994751,911.006714 
	C1965.839233,909.869629 1965.610596,908.742615 1965.500610,906.872192 
	C1965.689453,891.515564 1965.808594,876.897644 1965.854980,862.279480 
	C1965.857300,861.529236 1965.236450,860.777039 1964.905762,860.025818 
z"/>
<path fill="#00369B" opacity="1.000000" stroke="none" 
	d="
M1682.999634,872.000000 
	C1682.999634,890.779236 1682.999634,909.058411 1682.999634,927.666016 
	C1677.539185,927.666016 1672.638794,927.666016 1667.367920,927.666016 
	C1667.367920,888.621338 1667.367920,849.733704 1667.367920,810.422485 
	C1672.271118,810.422485 1677.174438,810.422485 1682.999634,810.422485 
	C1682.999634,830.701477 1682.999634,851.100708 1682.999634,872.000000 
z"/>
<path fill="#00369B" opacity="1.000000" stroke="none" 
	d="
M673.948730,860.002136 
	C664.104065,860.611938 655.262085,870.071167 655.017212,878.699280 
	C654.612427,892.962097 654.327148,907.228210 654.005859,921.493286 
	C653.961792,923.449402 653.999756,925.407410 653.999756,927.671631 
	C648.532532,927.671631 643.634705,927.671631 638.366028,927.671631 
	C638.366028,900.958618 638.366028,874.410767 638.366028,847.430542 
	C642.589966,847.430542 646.823120,847.430542 651.608887,847.430542 
	C651.608887,851.332947 651.608887,855.398865 651.608887,859.534546 
	C655.547607,855.482727 658.635986,850.819946 662.967957,848.269714 
	C667.250122,845.748779 672.788513,845.362000 678.558716,843.831421 
	C678.558716,850.174438 678.558716,855.065918 678.558716,860.001831 
	C677.219604,860.001831 675.791687,860.001831 673.948730,860.002136 
z"/>
<path fill="#00369B" opacity="1.000000" stroke="none" 
	d="
M2728.997070,923.773438 
	C2729.155273,926.513794 2728.738037,928.132629 2725.843018,928.022827 
	C2721.864014,927.871887 2717.875000,927.985046 2713.445801,927.985046 
	C2713.445801,900.991577 2713.445801,874.311218 2713.445801,847.314209 
	C2718.493896,847.314209 2723.395020,847.314209 2728.999023,847.314209 
	C2728.999023,872.778931 2728.999023,898.039124 2728.997070,923.773438 
z"/>
<path fill="#00369B" opacity="1.000000" stroke="none" 
	d="
M2070.000000,904.000000 
	C2070.000000,912.117676 2070.000000,919.735413 2070.000000,927.670898 
	C2064.534180,927.670898 2059.634277,927.670898 2054.365723,927.670898 
	C2054.365723,900.950867 2054.365723,874.395752 2054.365723,847.419312 
	C2059.284180,847.419312 2064.186279,847.419312 2070.000000,847.419312 
	C2070.000000,866.037354 2070.000000,884.768677 2070.000000,904.000000 
z"/>
<path fill="#00369B" opacity="1.000000" stroke="none" 
	d="
M729.999817,882.000000 
	C729.999817,870.218445 729.999817,858.936951 729.999817,847.331543 
	C735.460693,847.331543 740.360107,847.331543 745.632324,847.331543 
	C745.632324,874.044373 745.632324,900.600525 745.632324,927.579163 
	C740.726379,927.579163 735.823547,927.579163 729.999817,927.579163 
	C729.999817,912.635376 729.999817,897.567688 729.999817,882.000000 
z"/>
<path fill="#00359B" opacity="1.000000" stroke="none" 
	d="
M2719.410156,834.690186 
	C2714.033447,833.502563 2711.307373,830.454163 2711.017090,825.556091 
	C2710.731934,820.744629 2714.049072,816.761047 2719.609131,815.238647 
	C2723.002197,814.309631 2728.393066,817.038513 2730.299805,820.650574 
	C2732.121826,824.102722 2731.327393,830.022034 2727.935303,832.324524 
	C2725.682617,833.853394 2722.531250,834.057800 2719.410156,834.690186 
z"/>
<path fill="#00369B" opacity="1.000000" stroke="none" 
	d="
M2070.012207,830.909607 
	C2065.650391,835.530518 2059.375000,836.138306 2055.253418,832.700439 
	C2052.454102,830.365601 2051.986328,822.359436 2054.451416,818.979736 
	C2057.693115,814.535217 2062.518066,813.828308 2067.938232,817.003784 
	C2072.171143,819.483765 2073.036621,824.810791 2070.012207,830.909607 
z"/>
<path fill="#00369B" opacity="1.000000" stroke="none" 
	d="
M747.338196,827.333252 
	C746.388428,831.898987 742.899597,835.094177 738.287354,834.831665 
	C734.629517,834.623413 730.616150,834.131775 729.095703,829.666382 
	C727.379028,824.624573 728.521118,819.416443 731.902039,817.292236 
	C735.843323,814.816040 739.940857,814.464783 743.830078,817.188599 
	C747.165649,819.524658 748.482727,822.885986 747.338196,827.333252 
z"/>
<path fill="#0055AA" opacity="1.000000" stroke="none" 
	d="
M1964.941162,860.491089 
	C1965.236450,860.777039 1965.857300,861.529236 1965.854980,862.279480 
	C1965.808594,876.897644 1965.689453,891.515564 1965.400635,906.485535 
	C1965.136108,891.543823 1965.056274,876.250061 1964.941162,860.491089 
z"/></svg>
