<svg version="1.1" id="Layer_1" xmlns="http://www.w3.org/2000/svg" xmlns:xlink="http://www.w3.org/1999/xlink" x="0px" y="0px" width="100%" viewBox="0 0 663 245" enable-background="new 0 0 663 245" xml:space="preserve">

<path fill="#25AAE1" opacity="1.000000" stroke="none" d=" M574.295471,95.790497   C556.592346,79.883743 553.301147,54.507805 563.070190,36.050724   C571.902405,19.363533 585.938354,10.793858 605.068298,9.892141   C628.436462,8.790651 650.053040,24.700844 654.303101,48.027752   C658.045410,68.568047 652.860962,88.025475 632.142883,100.213860   C612.352600,111.856461 592.864502,109.700806 574.295471,95.790497  M594.066345,95.276535   C599.818726,93.937172 603.294495,90.583183 603.853882,85.535995   C604.401978,80.590828 602.402100,76.692360 598.101624,74.312462   C593.776184,71.918747 589.379517,72.441330 585.539734,75.500809   C581.827576,78.458656 580.542480,82.498108 581.827332,87.072350   C583.432678,92.787872 587.581299,95.271492 594.066345,95.276535  z"/>
<path fill="#65BC46" opacity="1.000000" stroke="none" d=" M513.828491,106.010330   C497.256256,109.111557 482.362152,106.866394 469.406952,95.927315   C458.183014,86.450111 452.582703,73.943733 452.232452,59.755222   C451.852631,44.367577 457.729126,30.785946 469.823181,20.825914   C486.667206,6.954063 510.989746,6.031705 528.882202,17.971901   C552.011902,33.407082 557.182617,66.687073 540.183838,88.458519   C533.332703,97.233292 524.583923,102.644745 513.828491,106.010330  M518.730042,52.039230   C520.816162,52.611763 523.192383,52.731915 524.930908,53.846615   C529.158264,56.557137 534.074463,56.119381 536.861755,52.285961   C539.686523,48.401031 538.804993,43.032124 534.908813,40.391830   C530.767456,37.585381 525.445007,38.697292 523.045349,43.412846   C520.836243,47.754055 516.559082,47.451668 513.634216,46.793053   C511.044312,46.209873 507.895386,42.799816 507.345917,40.149944   C506.908783,38.041683 509.535522,34.626312 511.668427,32.806854   C515.311035,29.699633 516.198425,24.536303 512.243103,22.376856   C510.311005,21.321980 506.549988,21.137890 505.095032,22.343565   C503.442352,23.713072 502.463257,27.274254 502.919617,29.533575   C503.991608,34.840546 502.380981,38.063309 497.074036,39.112900   C491.768951,40.162109 487.748352,43.193615 486.376801,48.428116   C485.574005,51.491955 483.988190,52.796917 481.343353,52.721840   C478.540802,52.642292 475.637054,52.213539 472.995575,51.303989   C469.152222,49.980598 465.946472,50.463295 463.852264,53.914265   C461.774811,57.337593 462.407684,60.804916 465.760529,63.146729   C469.095062,65.475746 472.454041,64.838058 475.134399,61.847092   C479.689209,56.764408 484.393280,56.805313 488.940857,61.976276   C489.883148,63.047737 491.323273,63.681332 492.101746,64.218506   C489.924286,70.792351 489.924286,70.792343 484.791992,72.542374   C480.298035,74.074722 477.057678,78.611542 477.178497,83.201935   C477.306335,88.058990 480.952087,92.606895 485.644867,93.763336   C490.322083,94.915939 495.230591,92.944908 497.771667,88.893761   C500.500519,84.543289 500.136292,80.329094 496.613129,75.489326   C494.477264,72.555283 495.750671,67.242790 498.907074,66.941170   C507.425018,66.127220 512.162720,61.551533 513.313477,53.254604   C515.001465,52.846352 516.447327,52.496635 518.730042,52.039230  z"/>
<path fill="#231F20" opacity="1.000000" stroke="none" d=" M80.839752,151.024734   C73.268524,152.143570 66.019928,153.489349 61.695988,159.994385   C59.478619,163.330231 57.282829,167.480927 57.205841,171.306213   C56.776928,192.617035 56.999847,213.940994 56.999847,235.630127   C52.528740,235.630127 48.123798,235.630127 43.225876,235.630127   C43.161827,234.503586 43.011673,233.081955 43.010605,231.660202   C42.995316,211.337967 42.885773,191.014862 43.036018,170.693710   C43.158176,154.172165 58.732616,139.580017 74.563179,138.986618   C84.641106,138.608841 94.513145,138.895523 102.735428,145.963943   C104.973183,147.887650 107.258446,149.756104 109.282631,151.449722   C114.453835,145.209930 121.231560,140.904739 129.047394,139.676575   C139.528244,138.029648 150.248611,137.545883 159.748505,144.216812   C170.402664,151.698273 176.183105,161.039597 175.229324,174.864655   C174.211365,189.619675 174.999924,204.499329 174.999878,219.324585   C174.999863,224.648209 174.999878,229.971848 174.999878,235.647446   C170.489563,235.647446 166.086700,235.647446 161.000137,235.647446   C161.000137,234.282730 161.000137,232.697250 161.000137,231.111771   C161.000137,211.455811 160.570801,191.786728 161.171616,172.149155   C161.498077,161.479416 152.274948,154.097809 144.509018,152.139374   C132.758301,149.176025 122.922035,155.085175 118.797546,162.911285   C117.135345,166.065292 116.162453,169.957306 116.119873,173.528305   C115.873909,194.157150 115.999855,214.790405 115.999855,235.710541   C111.364098,235.710541 106.962120,235.710541 102.000145,235.710541   C102.000145,232.151825 102.000145,228.544830 102.000145,224.937820   C102.000145,207.613937 102.000412,190.290039 102.000053,172.966156   C101.999832,162.210632 94.200439,153.383591 83.505310,151.964584   C82.731651,151.861938 82.010841,151.360916 80.839752,151.024734  z"/>
<path fill="#231F20" opacity="1.000000" stroke="none" d=" M190.114410,235.999847   C186.980835,236.406647 185.909485,235.602066 185.928650,232.596451   C186.063705,211.436890 185.651505,190.268188 186.127335,169.118454   C186.426575,155.817703 198.477448,143.086121 211.502243,140.129944   C227.093781,136.591202 241.320709,139.383545 252.661697,152.183060   C261.930481,139.768356 275.073120,137.355072 288.873627,139.213562   C303.168488,141.138611 318.715149,153.721497 318.163300,171.052261   C317.480499,192.497253 317.999908,213.980515 317.999908,235.723007   C313.337128,235.723007 308.934845,235.723007 304.000092,235.723007   C304.000092,234.108047 304.000061,232.501480 304.000061,230.894928   C304.000061,211.234055 303.543182,191.558136 304.190033,171.918564   C304.520691,161.879654 292.420807,151.875366 283.920898,151.859100   C274.539307,151.841156 266.711151,154.349686 262.001648,162.748764   C260.195038,165.970764 259.177765,170.060501 259.128906,173.772308   C258.859253,194.261887 258.999908,214.756836 258.999908,235.624878   C254.539932,235.624878 250.133270,235.624878 245.000137,235.624878   C245.000137,234.330688 245.000137,232.750595 245.000137,231.170502   C245.000137,212.176102 244.485413,193.162369 245.197479,174.194702   C245.609863,163.209564 236.956955,154.308167 228.959579,152.557541   C216.575562,149.846710 205.694260,154.152283 200.537521,167.041809   C199.955795,168.495865 200.023026,170.264191 200.020630,171.887115   C199.989365,193.035568 199.999878,214.184097 199.999878,235.999863   C196.775101,235.999863 193.684357,235.999863 190.114410,235.999847  z"/>
<path fill="#231F20" opacity="1.000000" stroke="none" d=" M328.000092,182.061951   C326.562775,160.679626 343.891388,144.320312 361.805176,140.200058   C378.833221,136.283493 395.368073,138.673386 409.012695,150.692413   C417.704956,158.349106 422.683014,168.375961 422.944611,180.180344   C423.199005,191.658936 422.998657,203.147583 423.000427,214.631805   C423.001587,222.179077 423.742554,222.906509 431.482391,223.004074   C432.134247,223.012299 432.785583,223.064407 433.716492,223.109695   C433.716492,227.252380 433.716492,231.331329 433.716492,235.758682   C423.316742,237.034653 415.088226,233.857422 409.691895,223.946014   C400.371185,232.847977 388.817871,236.656296 376.638184,236.774841   C359.037354,236.946136 339.115692,231.451706 329.968140,208.404617   C328.807281,205.479782 328.256470,202.184372 328.083374,199.024475   C327.783417,193.548477 328.000092,188.044159 328.000092,182.061951  M352.045380,216.567322   C353.347565,217.530060 354.605835,218.559891 355.958649,219.445297   C371.720367,229.761581 393.015991,225.438828 403.699921,209.819031   C409.969604,200.652802 409.311249,190.399399 408.623383,180.081970   C408.123047,172.577408 404.733917,166.318039 399.583374,161.343246   C391.224731,153.269836 380.723267,150.537247 369.359680,152.088943   C360.625366,153.281601 353.501007,157.644745 347.732697,164.514938   C343.983551,168.980301 342.420654,173.861038 341.717987,179.519394   C340.029663,193.114746 340.302948,205.999680 352.045380,216.567322  z"/>
<path fill="#231F20" opacity="1.000000" stroke="none" d=" M522.173828,198.409988   C527.411865,223.761917 561.066650,234.617920 581.826782,213.819107   C584.641602,216.478012 587.567444,219.058029 590.199280,221.909439   C590.635376,222.381943 590.167786,224.467606 589.474365,225.084366   C581.829529,231.884308 572.759644,234.944748 562.613586,236.126022   C548.052734,237.821304 534.942993,234.857162 523.304810,225.999771   C515.094116,219.750870 509.760956,211.425690 509.147186,201.068741   C508.578125,191.466293 507.733673,181.470657 509.695648,172.217484   C513.205811,155.662689 524.783081,145.009247 540.888306,140.812469   C558.920471,136.113510 576.226990,137.939423 590.418335,151.934021   C590.643982,152.156525 590.776978,152.473022 590.899231,152.662170   C587.837463,155.629730 584.789062,158.584366 581.452881,161.817917   C575.038025,155.247742 566.362976,151.592987 556.842957,151.273849   C551.560913,151.096771 545.777588,152.525238 540.949341,154.786789   C528.830688,160.463226 521.868530,170.064850 521.994568,183.986542   C522.036865,188.652679 522.017700,193.319397 522.173828,198.409988  z"/>
<path fill="#231F20" opacity="1.000000" stroke="none" d=" M637.804321,153.963516   C627.470825,148.427612 618.628723,152.127014 616.693787,162.908417   C615.890320,167.385223 618.264038,170.797409 622.254089,173.037933   C629.418640,177.061157 636.505554,181.224579 643.705933,185.181992   C660.761841,194.556122 657.107300,216.092773 647.780945,226.773407   C642.214111,233.148575 634.696228,235.125076 626.948486,235.869614   C617.416443,236.785645 608.166870,235.968796 600.229004,229.141251   C595.062134,224.697128 594.673096,224.049454 600.260986,220.239853   C601.330322,219.510803 602.389404,218.763611 603.489502,218.083572   C604.443359,217.493912 605.448792,216.987503 605.538635,216.937820   C610.442078,219.346359 614.758728,222.384186 619.538574,223.597717   C626.564270,225.381424 632.555359,222.330902 637.473206,217.082001   C641.818970,212.443665 642.674011,206.120071 640.365234,201.514648   C638.147522,197.090973 632.604858,194.114029 628.120789,191.100189   C621.984619,186.975952 615.526428,183.315399 609.097473,179.646667   C603.143005,176.248734 602.149658,170.341095 602.145447,164.627899   C602.136108,151.815262 609.011658,143.299332 620.985596,139.447937   C632.899048,135.615967 647.160339,140.824722 653.292908,150.556381   C649.735718,152.917770 646.150696,155.297623 642.472656,157.739227   C641.117859,156.565384 639.648926,155.292618 637.804321,153.963516  z"/>
<path fill="#231F20" opacity="1.000000" stroke="none" d=" M456.999908,204.992462   C456.999908,208.990082 456.982178,212.489471 457.004028,215.988617   C457.036285,221.157867 458.892761,222.967682 464.161804,222.998108   C466.289948,223.010391 468.418213,223.000122 470.770630,223.000122   C470.770630,227.417892 470.770630,231.489548 470.770630,235.769440   C462.121399,236.526154 453.609894,236.735672 447.832825,229.098099   C445.444275,225.940247 443.300079,221.669464 443.212341,217.854996   C442.756531,198.036194 443.000092,178.201324 443.000092,158.372040   C443.000092,156.737167 443.000092,155.102280 443.000092,153.059021   C437.602051,153.059021 432.520721,153.059021 427.228180,153.059021   C427.228180,148.568573 427.228180,144.500671 427.228180,140.006409   C432.451447,140.006409 437.533295,140.006409 442.844360,140.006409   C442.844360,132.637665 442.844360,125.684700 442.844360,118.366753   C447.479492,118.366753 451.885040,118.366753 456.720886,118.366753   C456.720886,125.167717 456.720886,132.246796 456.720886,139.746552   C462.200256,139.746552 467.274933,139.746552 472.673553,139.746552   C472.673553,144.230774 472.673553,148.300400 472.673553,152.799133   C467.746887,152.799133 462.670624,152.799133 456.999908,152.799133   C456.999908,170.308411 456.999908,187.401260 456.999908,204.992462  z"/>
<path fill="#EE1D26" opacity="1.000000" stroke="none" d=" M422.578979,60.422081   C413.696625,51.685959 403.716248,45.303509 393.205719,41.700443   C393.205719,30.813520 393.205719,20.629206 393.205719,10.058556   C412.274353,9.025140 427.181641,16.704029 437.067841,32.800446   C446.764648,48.588520 446.622040,65.256821 438.761963,81.929733   C433.279785,74.615768 428.053986,67.643822 422.578979,60.422081  z"/>
<path fill="#EE1D26" opacity="1.000000" stroke="none" d=" M347.992828,47.175430   C350.122040,41.412395 352.243103,36.082684 354.120544,31.365156   C363.434570,37.388779 371.870422,42.844490 380.560364,48.464504   C376.251129,69.285629 379.260437,86.698174 390.279297,107.452408   C386.031830,106.508514 382.430847,106.144501 379.160339,104.906990   C363.925293,99.142334 352.881165,88.650307 348.792572,72.890419   C346.727173,64.929169 348.142944,56.064785 347.992828,47.175430  z"/>
<path fill="#EE1D26" opacity="1.000000" stroke="none" d=" M388.615967,54.859470   C389.037292,53.043884 389.366730,51.647648 389.786591,49.868423   C405.484375,55.546345 417.200958,65.326561 425.776611,78.990623   C427.099762,81.098854 428.190430,83.353706 429.374725,85.548233   C432.605438,91.534721 432.770905,92.842987 426.983459,96.284233   C420.100342,100.376961 412.668762,103.610970 405.259583,106.700958   C403.800934,107.309273 400.355042,106.180740 399.531799,104.820557   C390.316010,89.594078 385.840149,73.201820 388.615967,54.859470  z"/>
<path fill="#231F20" opacity="1.000000" stroke="none" d=" M26.845493,140.000458   C30.216906,139.534393 30.016911,141.437668 30.015493,143.364441   C29.992975,174.006668 29.999643,204.648911 29.999643,235.645447   C25.494129,235.645447 21.091263,235.645447 16.341423,235.645447   C16.341423,204.144516 16.341423,172.420715 16.341423,140.000183   C19.528933,140.000183 22.946117,140.000183 26.845493,140.000458  z"/>
<path fill="#231F20" opacity="1.000000" stroke="none" d=" M496.999908,188.000000   C496.999908,204.133926 496.999908,219.767838 496.999908,235.700287   C492.382996,235.700287 487.982422,235.700287 483.288147,235.700287   C483.288147,204.039047 483.288147,172.319717 483.288147,140.299835   C487.616730,140.299835 492.017334,140.299835 496.999908,140.299835   C496.999908,155.990967 496.999908,171.745483 496.999908,188.000000  z"/>
<path fill="#EE1F28" opacity="1.000000" stroke="none" d=" M363.856323,21.017452   C370.404358,17.347136 376.577972,13.738555 382.751556,10.129975   C383.302795,10.507562 383.854004,10.885148 384.405243,11.262734   C384.405243,20.133644 384.405243,29.004553 384.405243,38.592888   C374.986023,35.852654 368.449738,30.956141 362.670532,24.988647   C362.150177,24.451365 363.174774,22.417850 363.856323,21.017452  z"/>
<path fill="#1D1D1B" opacity="1.000000" stroke="none" d=" M653.398315,113.883011   C656.328064,124.281960 651.449768,131.918457 642.285156,131.999863   C635.663635,132.058670 631.311218,128.630051 629.330566,121.794991   C628.236023,118.017761 630.745850,111.642151 634.250610,109.297050   C639.146484,106.021141 646.233398,106.309700 650.526855,110.114899   C651.587708,111.055122 652.262512,112.431023 653.398315,113.883011  M637.275269,126.774330   C640.375366,127.209595 643.475403,127.644867 647.530396,128.214218   C644.720642,124.967186 643.097412,123.091354 641.190796,120.887970   C641.037476,122.908424 640.929932,124.325630 640.820068,125.773682   C639.289612,125.954124 638.011841,126.104782 636.976562,125.319229   C636.912354,121.145424 636.848206,116.971619 637.748169,112.983154   C640.556274,112.983154 643.364319,112.983154 646.172424,112.983154   C646.138306,112.469841 646.104187,111.956520 646.070068,111.443207   C642.971191,111.304306 639.742615,109.306320 636.246338,113.215836   C632.462219,117.475136 632.685303,122.197952 637.275269,126.774330  M647.008789,120.342522   C647.474487,121.813530 647.940125,123.284546 648.405823,124.755554   C648.799805,124.749245 649.193787,124.742928 649.587769,124.736618   C649.587769,121.434792 649.587769,118.132973 649.587769,114.831146   C649.248047,114.814102 648.908325,114.797066 648.568604,114.780022   C648.067017,116.359032 647.565430,117.938042 647.008789,120.342522  z"/>
<path fill="#FAFDFE" opacity="1.000000" stroke="none" d=" M593.697876,95.346024   C587.581299,95.271492 583.432678,92.787872 581.827332,87.072350   C580.542480,82.498108 581.827576,78.458656 585.539734,75.500809   C589.379517,72.441330 593.776184,71.918747 598.101624,74.312462   C602.402100,76.692360 604.401978,80.590828 603.853882,85.535995   C603.294495,90.583183 599.818726,93.937172 593.697876,95.346024  z"/>
<path fill="#FBFDFA" opacity="1.000000" stroke="none" d=" M518.311646,52.093075   C516.447327,52.496635 515.001465,52.846352 513.313477,53.254604   C512.162720,61.551533 507.425018,66.127220 498.907074,66.941170   C495.750671,67.242790 494.477264,72.555283 496.613129,75.489326   C500.136292,80.329094 500.500519,84.543289 497.771667,88.893761   C495.230591,92.944908 490.322083,94.915939 485.644867,93.763336   C480.952087,92.606895 477.306335,88.058990 477.178497,83.201935   C477.057678,78.611542 480.298035,74.074722 484.791992,72.542374   C489.924286,70.792343 489.924286,70.792351 492.101746,64.218506   C491.323273,63.681332 489.883148,63.047737 488.940857,61.976276   C484.393280,56.805313 479.689209,56.764408 475.134399,61.847092   C472.454041,64.838058 469.095062,65.475746 465.760529,63.146729   C462.407684,60.804916 461.774811,57.337593 463.852264,53.914265   C465.946472,50.463295 469.152222,49.980598 472.995575,51.303989   C475.637054,52.213539 478.540802,52.642292 481.343353,52.721840   C483.988190,52.796917 485.574005,51.491955 486.376801,48.428116   C487.748352,43.193615 491.768951,40.162109 497.074036,39.112900   C502.380981,38.063309 503.991608,34.840546 502.919617,29.533575   C502.463257,27.274254 503.442352,23.713072 505.095032,22.343565   C506.549988,21.137890 510.311005,21.321980 512.243103,22.376856   C516.198425,24.536303 515.311035,29.699633 511.668427,32.806854   C509.535522,34.626312 506.908783,38.041683 507.345917,40.149944   C507.895386,42.799816 511.044312,46.209873 513.634216,46.793053   C516.559082,47.451668 520.836243,47.754055 523.045349,43.412846   C525.445007,38.697292 530.767456,37.585381 534.908813,40.391830   C538.804993,43.032124 539.686523,48.401031 536.861755,52.285961   C534.074463,56.119381 529.158264,56.557137 524.930908,53.846615   C523.192383,52.731915 520.816162,52.611763 518.311646,52.093075  z"/>





</svg>