<svg version="1.1" id="Layer_1" xmlns="http://www.w3.org/2000/svg" xmlns:xlink="http://www.w3.org/1999/xlink" x="0px" y="0px"
	 width="100%" viewBox="0 0 1914 379" enable-background="new 0 0 1914 379" xml:space="preserve">
<path fill="#CB164A" opacity="1.000000" stroke="none" 
	d="
M375.833374,138.999435 
	C377.888214,148.111740 380.323151,157.159760 381.878113,166.356567 
	C383.131378,173.769073 383.872131,181.363739 383.839172,188.873199 
	C383.801117,197.555908 382.613434,206.230179 382.020172,214.914627 
	C381.082214,228.644165 377.415771,241.753357 373.060638,254.702194 
	C365.784180,276.336700 354.718628,295.845459 340.130402,313.397644 
	C321.401947,335.931122 298.917267,353.651520 272.287231,365.870361 
	C258.885040,372.019745 244.948105,376.820862 230.156021,379.632294 
	C229.555557,380.000000 229.111099,380.000000 228.333328,379.531342 
	C228.000000,326.748932 228.015625,274.435150 227.959564,222.121475 
	C227.956360,219.117722 228.571945,217.088715 231.219696,215.010452 
	C240.076752,208.058350 248.552765,200.619522 257.150391,193.338425 
	C272.702820,180.167465 288.189423,166.918396 303.792542,153.807907 
	C321.673462,138.783493 339.701202,123.933449 357.540558,108.860153 
	C360.709991,106.182144 362.321716,107.519417 363.585876,110.348427 
	C365.886566,115.497162 367.853302,120.795280 370.160309,125.940994 
	C371.119110,128.079514 372.593475,129.986893 373.833374,131.999374 
	C374.227203,133.399277 374.621033,134.799179 374.821838,136.728165 
	C375.030334,137.837967 375.431854,138.418701 375.833374,138.999435 
z"/>
<path fill="#CB164A" opacity="1.000000" stroke="none" 
	d="
M25.108158,106.951904 
	C28.326818,109.389954 31.645552,111.707611 34.747375,114.286201 
	C50.996391,127.794167 67.233971,141.316605 83.390228,154.935211 
	C97.061783,166.459381 110.555855,178.194321 124.243050,189.699677 
	C135.388107,199.068146 146.783508,208.140533 157.842194,217.607880 
	C159.258636,218.820496 159.908646,221.621643 159.913055,223.689026 
	C160.023727,275.480072 160.000000,327.271393 160.000000,379.531342 
	C157.299988,380.000000 154.599976,380.000000 151.331818,379.636475 
	C149.924637,378.850220 149.129425,378.244110 148.240173,378.031708 
	C130.491852,373.792664 113.632690,367.328369 98.151245,357.819763 
	C97.353340,357.188538 96.293320,356.783203 94.967560,356.262573 
	C94.097580,355.780060 93.493355,355.412872 93.151245,354.819763 
	C92.353348,354.188538 91.293327,353.783203 89.967552,353.262543 
	C89.097565,352.780029 88.493332,352.412811 88.147408,351.843231 
	C87.526619,351.343170 86.647522,351.045502 85.589432,350.734161 
	C85.410431,350.720490 85.167938,350.455719 85.385056,350.106262 
	C85.488846,346.911865 83.999039,346.639160 81.607536,347.715668 
	C81.427704,347.715942 81.171638,347.463379 81.374825,347.114075 
	C80.895844,346.452576 80.213684,346.140320 79.378807,345.858704 
	C79.226097,345.889282 78.935493,345.777161 79.178085,345.434998 
	C78.133301,344.341736 76.845924,343.590607 75.388077,342.874481 
	C75.217590,342.909485 74.899139,342.768951 75.153801,342.451691 
	C74.191124,339.701935 73.371834,336.727051 69.383118,337.873474 
	C69.212204,337.908783 68.893166,337.767151 69.148621,337.458740 
	C67.510490,334.841766 65.828430,332.298920 63.637100,330.320038 
	C62.482933,329.277740 60.439323,329.220367 58.609882,328.717712 
	C58.422440,328.717102 58.163857,328.445679 58.382599,328.117188 
	C57.775539,326.068054 57.231956,324.120300 56.067097,322.672424 
	C53.372124,319.322601 50.283890,316.292419 47.517921,312.996033 
	C32.646637,295.272827 21.292524,275.414276 13.904172,253.585739 
	C4.609621,226.125427 2.269279,197.877457 5.790854,168.962006 
	C7.948546,151.245316 12.726459,134.370667 18.774807,117.763664 
	C20.180887,113.902969 22.960529,110.542526 25.108158,106.951904 
z"/>
<path fill="#CB164A" opacity="1.000000" stroke="none" 
	d="
M211.583344,1.000000 
	C215.147522,1.991932 218.233490,3.519180 221.452515,3.889304 
	C243.065903,6.374432 263.154968,13.390024 282.224640,23.647524 
	C296.380402,31.261822 309.390045,40.437695 321.440521,51.763931 
	C277.913574,88.295532 234.648483,124.607353 190.958817,161.275528 
	C185.237228,156.605972 179.415283,151.913574 173.657791,147.143341 
	C161.797501,137.316803 149.925003,127.504066 138.146271,117.580322 
	C128.600754,109.538116 119.248337,101.266518 109.693336,93.235786 
	C100.672562,85.654060 91.361801,78.413284 82.438194,70.721367 
	C75.755745,64.961266 69.485558,58.722885 63.454063,52.343636 
	C65.013115,51.396465 66.340668,51.012909 67.258347,50.178558 
	C83.134964,35.743622 101.157928,24.735456 120.940483,16.571262 
	C136.479523,10.158351 152.689606,5.985351 169.345612,4.181085 
	C180.192123,3.006133 191.205750,3.418011 202.135284,2.917609 
	C203.782669,2.842184 205.379684,1.666648 207.000000,0.999997 
	C208.388885,1.000000 209.777786,1.000000 211.583344,1.000000 
z"/>
<path fill="#494D51" opacity="1.000000" stroke="none" 
	d="
M1915.000000,324.600006 
	C1903.672363,325.000000 1892.342041,324.861298 1881.018677,325.079620 
	C1877.343140,325.150452 1875.991943,323.992462 1874.556030,320.425018 
	C1866.763916,301.064636 1858.427246,281.923553 1850.300537,262.697540 
	C1849.985474,261.952179 1849.898071,261.110657 1849.628418,260.000000 
	C1842.711426,260.000000 1835.729980,260.000000 1828.748535,260.000000 
	C1799.096802,260.000000 1769.445190,260.026947 1739.793579,259.960968 
	C1736.604126,259.953857 1734.744751,260.338776 1733.273193,264.028412 
	C1725.481567,283.565247 1717.187866,302.902832 1708.935547,322.252869 
	C1708.438599,323.418243 1706.807129,324.859436 1705.680908,324.879272 
	C1694.541992,325.075165 1683.398438,324.997742 1671.126343,324.997742 
	C1706.368042,241.273697 1741.313477,158.253571 1776.356812,75.000999 
	C1787.989014,75.000999 1799.642456,74.868912 1811.285278,75.158798 
	C1812.838501,75.197464 1815.119263,77.057243 1815.748291,78.607239 
	C1828.765015,110.678452 1841.556885,142.840790 1854.465088,174.956177 
	C1866.347900,204.520554 1878.289795,234.061264 1890.255005,263.592346 
	C1897.605347,281.733673 1905.038818,299.841400 1912.475464,317.947540 
	C1912.897217,318.974518 1913.686401,319.850555 1914.652344,320.898407 
	C1915.000000,322.066681 1915.000000,323.133331 1915.000000,324.600006 
M1752.938354,215.289505 
	C1750.823364,220.313156 1748.708374,225.336792 1746.443848,230.715637 
	C1777.434937,230.715637 1807.622681,230.715637 1838.514038,230.715637 
	C1823.563721,190.848892 1808.793701,151.463150 1793.749146,111.345337 
	C1779.932007,146.322571 1766.466064,180.411148 1752.938354,215.289505 
z"/><path fill="#CB164A" opacity="1.000000" stroke="none" 
	d="
M373.899048,131.619705 
	C372.593475,129.986893 371.119110,128.079514 370.160309,125.940994 
	C367.853302,120.795280 365.886566,115.497162 363.585876,110.348427 
	C362.321716,107.519417 360.709991,106.182144 357.540558,108.860153 
	C339.701202,123.933449 321.673462,138.783493 303.792542,153.807907 
	C288.189423,166.918396 272.702820,180.167465 257.150391,193.338425 
	C248.552765,200.619522 240.076752,208.058350 231.219696,215.010452 
	C228.571945,217.088715 227.956360,219.117722 227.959564,222.121475 
	C228.015625,274.435150 228.000000,326.748932 228.000000,379.531342 
	C227.250000,380.000000 226.500000,380.000000 225.375000,380.000000 
	C225.000000,328.364655 225.209091,276.727448 224.752136,225.096176 
	C224.690643,218.146759 227.553497,214.241531 232.102249,210.439590 
	C241.903458,202.247559 251.734512,194.091125 261.568848,185.938843 
	C272.910400,176.537125 284.311340,167.206558 295.606323,157.749359 
	C304.917114,149.953461 314.071442,141.970917 323.367798,134.157547 
	C332.639801,126.364662 342.017242,118.697380 351.316711,110.936958 
	C354.559784,108.230591 357.708069,105.410629 361.843597,101.823853 
	C366.122406,112.207916 370.043549,121.723976 373.899048,131.619705 
z"/>
<path fill="#CB164A" opacity="1.000000" stroke="none" 
	d="
M58.382599,328.117188 
	C46.114925,315.729370 35.169044,302.215912 26.374910,286.955414 
	C17.311720,271.228027 10.813060,254.540421 6.573795,236.981308 
	C4.860529,229.884933 4.189513,222.539047 2.966035,215.319962 
	C2.787106,214.264191 2.171825,213.282364 1.379223,212.133163 
	C1.000000,211.555557 1.000000,211.111099 1.374795,210.166214 
	C1.499727,207.110519 1.249864,204.555252 1.000000,202.000000 
	C1.000000,195.645599 1.000000,189.291214 1.374795,182.301300 
	C1.499727,179.110519 1.249864,176.555252 1.000000,174.000000 
	C1.000000,173.555557 1.000000,173.111099 1.000000,172.333328 
	C1.998825,168.242371 3.362309,164.539154 3.932408,160.717575 
	C6.218900,145.390381 10.589412,130.702728 16.825935,116.544731 
	C18.194939,113.436852 19.643549,110.362282 20.937939,107.223885 
	C21.859762,104.988792 22.958178,104.230530 24.961950,106.629883 
	C22.960529,110.542526 20.180887,113.902969 18.774807,117.763664 
	C12.726459,134.370667 7.948546,151.245316 5.790854,168.962006 
	C2.269279,197.877457 4.609621,226.125427 13.904172,253.585739 
	C21.292524,275.414276 32.646637,295.272827 47.517921,312.996033 
	C50.283890,316.292419 53.372124,319.322601 56.067097,322.672424 
	C57.231956,324.120300 57.775539,326.068054 58.382599,328.117188 
z"/>
<path fill="#CB164A" opacity="1.000000" stroke="none" 
	d="
M206.531342,0.999997 
	C205.379684,1.666648 203.782669,2.842184 202.135284,2.917609 
	C191.205750,3.418011 180.192123,3.006133 169.345612,4.181085 
	C152.689606,5.985351 136.479523,10.158351 120.940483,16.571262 
	C101.157928,24.735456 83.134964,35.743622 67.258347,50.178558 
	C66.340668,51.012909 65.013115,51.396465 63.521484,51.995399 
	C71.431892,45.183231 79.181793,37.582378 88.080078,31.726599 
	C102.329262,22.349506 117.544815,14.429778 134.171890,10.047333 
	C146.540771,6.787232 159.160828,4.479977 171.834503,1.374168 
	C183.354233,1.000000 194.708450,1.000000 206.531342,0.999997 
z"/>
<path fill="#494D51" opacity="1.000000" stroke="none" 
	d="
M1010.000000,245.000000 
	C1010.000000,271.804016 1010.000000,298.108063 1010.000000,324.705536 
	C997.977783,324.705536 986.249756,324.705536 974.259705,324.705536 
	C974.259705,241.576019 974.259705,158.519226 974.259705,75.000000 
	C976.202026,75.000000 977.987732,75.000000 979.773499,75.000000 
	C1010.437683,75.000000 1041.101929,74.953285 1071.765991,75.020996 
	C1085.726318,75.051819 1099.609131,76.262421 1112.490356,82.074707 
	C1132.237915,90.985229 1144.494385,105.810310 1148.125244,127.692909 
	C1150.504028,142.030670 1148.210571,155.551895 1141.793701,168.060425 
	C1134.363892,182.543381 1122.499634,192.546768 1106.476562,197.014145 
	C1106.080078,197.124664 1105.698120,197.286606 1104.815308,197.599991 
	C1110.210205,200.079071 1115.434937,201.916321 1120.071899,204.724380 
	C1130.725586,211.176300 1135.852051,221.613068 1137.877441,233.320847 
	C1141.320190,253.222198 1143.701538,273.307190 1147.140869,293.209198 
	C1148.734619,302.432159 1151.770264,311.405731 1154.145996,320.493988 
	C1154.495483,321.831390 1154.810547,323.177826 1155.259155,324.997131 
	C1143.161743,324.997131 1131.684204,325.073792 1120.211548,324.873505 
	C1119.116577,324.854401 1117.350952,323.270966 1117.083862,322.134705 
	C1114.896362,312.829285 1112.706299,303.506989 1111.073242,294.093353 
	C1109.123291,282.853912 1107.746704,271.515625 1106.076538,260.226837 
	C1105.099731,253.625061 1104.338989,246.971344 1102.947876,240.454803 
	C1099.628906,224.907516 1089.121704,215.231049 1073.138794,214.114960 
	C1052.357422,212.663773 1031.515991,212.072906 1010.000000,211.079437 
	C1010.000000,222.980103 1010.000000,233.740051 1010.000000,245.000000 
M1104.054077,168.419891 
	C1108.980469,162.422501 1111.109253,155.170761 1111.796265,147.778015 
	C1112.569580,139.455933 1111.527588,130.958862 1107.020508,123.686028 
	C1098.752197,110.344200 1085.638306,105.469566 1070.728149,105.089355 
	C1055.073608,104.690163 1039.400757,105.000008 1023.735962,105.000000 
	C1018.951660,105.000000 1014.167297,105.000000 1009.276611,105.000000 
	C1009.276611,130.881683 1009.276611,156.274628 1009.276611,182.000000 
	C1011.184998,182.000000 1012.820557,182.023361 1014.455322,181.996460 
	C1034.380615,181.668610 1054.308716,181.446396 1074.229980,180.955917 
	C1085.448242,180.679688 1096.042847,178.465820 1104.054077,168.419891 
z"/>
<path fill="#494D51" opacity="1.000000" stroke="none" 
	d="
M1345.298462,145.711533 
	C1350.886841,159.401031 1356.238281,172.771667 1361.593506,186.140884 
	C1369.775269,206.566681 1377.901855,227.014893 1386.158936,247.410263 
	C1395.087402,269.463837 1404.145630,291.464813 1413.130005,313.495789 
	C1414.581299,317.054535 1415.942017,320.650177 1417.639893,324.982208 
	C1404.724609,324.982208 1392.629395,325.066193 1380.539917,324.839874 
	C1379.445801,324.819397 1377.934082,322.991577 1377.383301,321.680756 
	C1369.231201,302.282715 1361.036255,282.898193 1353.325806,263.323608 
	C1352.040039,260.059326 1350.413574,259.988403 1347.882202,259.990356 
	C1326.217773,260.007141 1304.553467,260.000000 1282.889038,260.000000 
	C1268.890503,260.000000 1254.891357,260.065643 1240.894043,259.937775 
	C1238.456665,259.915527 1236.983643,260.450409 1236.029663,262.817230 
	C1227.984619,282.776062 1219.881470,302.711609 1211.697388,322.613708 
	C1211.292480,323.598419 1209.984253,324.878754 1209.081543,324.890717 
	C1197.477051,325.044556 1185.869873,324.992340 1173.618530,324.992340 
	C1178.368530,313.654877 1182.843018,302.933533 1187.350464,292.226135 
	C1193.883057,276.707886 1200.440552,261.200134 1206.985718,245.687180 
	C1213.844971,229.429337 1220.705811,213.172134 1227.559448,196.911896 
	C1234.036011,181.546005 1240.508179,166.178162 1246.975464,150.808289 
	C1253.818604,134.544891 1260.659912,118.280792 1267.489258,102.011620 
	C1270.684448,94.400253 1273.992676,86.831375 1276.957642,79.130829 
	C1278.140015,76.059761 1279.699707,74.836800 1283.094971,74.917435 
	C1292.921753,75.150818 1302.769287,75.276169 1312.583740,74.858040 
	C1316.278809,74.700615 1317.499756,76.422295 1318.581543,79.129402 
	C1327.408325,101.217094 1336.235962,123.304504 1345.298462,145.711533 
M1318.460815,170.963165 
	C1311.196167,151.409149 1303.931519,131.855133 1296.261108,111.209167 
	C1280.300171,151.616776 1264.777832,190.913818 1249.098511,230.608337 
	C1280.487061,230.608337 1310.654663,230.608337 1340.937500,230.608337 
	C1333.508545,210.686905 1326.222290,191.148148 1318.460815,170.963165 
z"/>
<path fill="#494D51" opacity="1.000000" stroke="none" 
	d="
M1505.735596,272.771179 
	C1496.040039,286.465698 1486.594727,299.893127 1477.170532,313.335358 
	C1475.028564,316.390381 1473.139160,319.644775 1470.772827,322.509430 
	C1469.762085,323.732941 1467.836060,324.871613 1466.309937,324.892700 
	C1453.004639,325.077026 1439.695679,324.999146 1425.389893,324.999146 
	C1429.248291,319.733856 1432.629517,315.096588 1436.034668,310.476898 
	C1452.742310,287.810272 1469.412720,265.115906 1486.183472,242.496002 
	C1497.246826,227.574280 1508.386597,212.707672 1519.666016,197.949326 
	C1521.774536,195.190643 1522.118652,193.280853 1519.936523,190.330795 
	C1507.841797,173.979233 1495.980713,157.454941 1483.996094,141.021637 
	C1471.720703,124.189682 1459.376709,107.407761 1447.103271,90.574402 
	C1443.592163,85.758850 1440.221680,80.840782 1436.271484,75.239029 
	C1438.393311,75.128586 1439.628174,75.009804 1440.863037,75.008446 
	C1453.360962,74.994652 1465.860474,74.899376 1478.354858,75.109505 
	C1480.211670,75.140732 1482.780884,76.117462 1483.777222,77.532257 
	C1498.648804,98.649200 1513.276611,119.937531 1528.039307,141.131622 
	C1534.082153,149.807159 1540.432129,158.270721 1546.379272,167.009811 
	C1548.224731,169.721649 1548.783081,169.650208 1550.625122,166.996674 
	C1562.586182,149.765167 1574.790161,132.702484 1586.817627,115.516617 
	C1595.662231,102.878929 1604.277588,90.079758 1613.235107,77.523781 
	C1614.242554,76.111633 1616.801758,75.138725 1618.659790,75.108803 
	C1631.486572,74.902206 1644.318359,75.000069 1658.131958,75.000069 
	C1654.535156,80.146774 1651.381958,84.882324 1648.005127,89.452766 
	C1630.978638,112.498573 1613.916504,135.518234 1596.819336,158.511841 
	C1588.650879,169.497726 1580.485474,180.489807 1572.075806,191.289993 
	C1569.938232,194.035355 1570.383789,196.053574 1572.119507,198.446777 
	C1587.215820,219.260757 1602.355103,240.043869 1617.374512,260.913330 
	C1628.674805,276.615051 1639.808716,292.436493 1651.035645,308.191071 
	C1654.781860,313.448029 1658.586914,318.663025 1662.934326,324.685944 
	C1660.617920,324.838470 1659.391602,324.987640 1658.165039,324.989410 
	C1646.000488,325.006897 1633.833984,325.102448 1621.673096,324.891296 
	C1619.812866,324.858978 1617.231812,323.900421 1616.242432,322.488525 
	C1601.047241,300.800354 1586.072021,278.958099 1571.021362,257.168457 
	C1562.253906,244.475479 1553.443237,231.812286 1544.330933,218.672577 
	C1531.440308,236.774658 1518.716919,254.642044 1505.735596,272.771179 
z"/>
<path fill="#494D51" opacity="1.000000" stroke="none" 
	d="
M856.000000,293.000000 
	C883.135742,293.000000 909.771423,293.000000 936.703125,293.000000 
	C936.703125,303.682861 936.703125,314.077209 936.703125,324.737030 
	C883.917480,324.737030 831.195435,324.737030 778.236572,324.737030 
	C778.236572,241.534622 778.236572,158.482834 778.236572,75.215515 
	C830.392761,75.215515 882.330505,75.215515 934.634277,75.215515 
	C934.634277,85.206367 934.634277,95.269615 934.634277,105.808594 
	C894.389221,105.808594 853.996643,105.808594 813.303101,105.808594 
	C813.303101,131.337448 813.303101,156.396362 813.303101,181.928833 
	C851.731812,181.928833 890.124695,181.928833 928.757202,181.928833 
	C928.757202,192.007019 928.757202,201.617249 928.757202,211.701385 
	C890.497498,211.701385 852.104553,211.701385 813.356506,211.701385 
	C813.356506,238.895889 813.356506,265.621765 813.356506,293.000000 
	C827.317261,293.000000 841.408630,293.000000 856.000000,293.000000 
z"/>
<path fill="#494D51" opacity="1.000000" stroke="none" 
	d="
M684.998962,240.004379 
	C676.969849,261.932617 668.986511,283.458801 661.052917,305.003326 
	C658.929993,310.768463 657.113953,316.652771 654.794556,322.334381 
	C654.297546,323.551819 652.243713,324.858795 650.883850,324.884247 
	C639.891846,325.090057 628.891968,325.106689 617.901611,324.860992 
	C616.563477,324.831055 614.543762,323.164764 614.058960,321.818054 
	C603.926880,293.667999 593.980164,265.451294 583.977539,237.254593 
	C571.975830,203.423019 560.003174,169.581009 547.926270,135.776291 
	C540.743103,115.669807 533.383484,95.626373 525.975220,75.201599 
	C539.420776,75.201599 552.316895,75.201599 565.559509,75.201599 
	C588.748230,144.745728 611.987305,214.440887 635.226379,284.136047 
	C635.643555,284.105591 636.060791,284.075134 636.477966,284.044678 
	C660.810791,214.526428 685.143677,145.008163 709.578003,75.199936 
	C721.001770,75.199936 732.784363,75.199936 745.777161,75.199936 
	C725.419312,130.327789 705.241394,184.968506 684.998962,240.004379 
z"/>
<path fill="#CB164A" opacity="1.000000" stroke="none" 
	d="
M375.902527,138.694946 
	C375.431854,138.418701 375.030334,137.837967 374.868927,137.104980 
	C375.396576,137.431992 375.684143,137.911240 375.902527,138.694946 
z"/>
<path fill="#CB164A" opacity="1.000000" stroke="none" 
	d="
M69.148621,337.458740 
	C65.701508,334.849060 62.509846,331.930969 59.057755,328.865601 
	C60.439323,329.220367 62.482933,329.277740 63.637100,330.320038 
	C65.828430,332.298920 67.510490,334.841766 69.148621,337.458740 
z"/>
<path fill="#CB164A" opacity="1.000000" stroke="none" 
	d="
M75.153801,342.451691 
	C73.235062,341.290985 71.570984,339.812988 69.730469,338.086578 
	C73.371834,336.727051 74.191124,339.701935 75.153801,342.451691 
z"/>
<path fill="#CB164A" opacity="1.000000" stroke="none" 
	d="
M79.178085,345.434998 
	C77.922997,344.958771 76.910492,344.140381 75.728271,343.080750 
	C76.845924,343.590607 78.133301,344.341736 79.178085,345.434998 
z"/>
<path fill="#CB164A" opacity="1.000000" stroke="none" 
	d="
M85.385056,350.106262 
	C84.197319,349.635315 83.226685,348.814911 82.021713,347.854980 
	C83.999039,346.639160 85.488846,346.911865 85.385056,350.106262 
z"/>
<path fill="#CB164A" opacity="1.000000" stroke="none" 
	d="
M88.147415,351.843231 
	C87.328201,351.693695 86.767288,351.341797 85.987396,350.868866 
	C86.647522,351.045502 87.526619,351.343170 88.147415,351.843231 
z"/>
<path fill="#CB164A" opacity="1.000000" stroke="none" 
	d="
M93.151245,354.819763 
	C92.134094,354.663025 91.379044,354.280396 90.428650,353.637817 
	C91.293327,353.783203 92.353348,354.188538 93.151245,354.819763 
z"/>
<path fill="#CB164A" opacity="1.000000" stroke="none" 
	d="
M98.151245,357.819763 
	C97.134094,357.663025 96.379051,357.280396 95.428650,356.637817 
	C96.293320,356.783203 97.353340,357.188538 98.151245,357.819763 
z"/>
<path fill="#CB164A" opacity="1.000000" stroke="none" 
	d="
M81.374817,347.114075 
	C80.714592,347.045715 80.257545,346.628021 79.666016,346.019226 
	C80.213684,346.140320 80.895844,346.452576 81.374817,347.114075 
z"/>
</svg>
